<?xml version="1.0" encoding="UTF-8"?>
<svg version="1.1" xmlns="http://www.w3.org/2000/svg" width="291" height="214">
<path d="M0 0 C96.03 0 192.06 0 291 0 C291 70.62 291 141.24 291 214 C194.97 214 98.94 214 0 214 C0 143.38 0 72.76 0 0 Z " fill="#F5FBFE" transform="translate(0,0)"/>
<path d="M0 0 C0.66 0 1.32 0 2 0 C3.67007687 2.97726736 5.33548572 5.9571197 7 8.9375 C7.47695312 9.78763672 7.95390625 10.63777344 8.4453125 11.51367188 C8.89648438 12.32255859 9.34765625 13.13144531 9.8125 13.96484375 C10.23144531 14.7137085 10.65039062 15.46257324 11.08203125 16.23413086 C12 18 12 18 12 19 C10.02 19 8.04 19 6 19 C5.84144531 19.98097656 5.68289062 20.96195313 5.51953125 21.97265625 C2.06975718 42.34287199 -5.12199047 59.75105955 -18 76 C-18.51691406 76.68191406 -19.03382813 77.36382812 -19.56640625 78.06640625 C-36.18130706 98.67887718 -63.0759279 109.75466038 -88.5625 113.52734375 C-99.5581057 114.70355638 -110.2650241 113.43392146 -120 108 C-120.60199219 107.68675781 -121.20398438 107.37351562 -121.82421875 107.05078125 C-127.90443131 103.37532691 -131.6461906 97.11525766 -135 91 C-135 90.01 -135 89.02 -135 88 C-129.23424086 87.92581664 -123.46875983 87.87138203 -117.70263672 87.83520508 C-115.74132447 87.82012305 -113.78004592 87.79965453 -111.81884766 87.77368164 C-108.99893882 87.73727269 -106.17947608 87.72026784 -103.359375 87.70703125 C-102.48319519 87.69154739 -101.60701538 87.67606354 -100.70428467 87.66011047 C-96.08312781 87.65883435 -93.52995619 87.74736744 -90 91 C-86.45769191 91.58342353 -86.45769191 91.58342353 -83 91 C-80.37458587 88.79803976 -80.0554552 87.38026421 -79.5625 84 C-79.78388388 80.94241941 -79.78388388 80.94241941 -81.625 78.625 C-84.71186432 76.51293494 -86.3282913 76.38804855 -90 77 C-90.51981445 77.66225586 -91.03962891 78.32451172 -91.57519531 79.00683594 C-95.34825151 82.10824862 -99.06218083 81.49688168 -103.796875 81.390625 C-104.74564514 81.38496521 -105.69441528 81.37930542 -106.67193604 81.37347412 C-109.69847336 81.35110609 -112.72382129 81.30090858 -115.75 81.25 C-117.8033683 81.22993557 -119.85675519 81.2116847 -121.91015625 81.1953125 C-126.94056156 81.15123981 -131.97007921 81.08220891 -137 81 C-137.08333333 67.625 -137.08333333 67.625 -134 63 C-131.45050728 62.61131967 -129.12690202 62.42748187 -126.5625 62.359375 C-125.7775415 62.32769226 -124.99258301 62.29600952 -124.18383789 62.2633667 C-121.45622092 62.15927662 -118.7284498 62.07915533 -116 62 C-113.89322115 61.9292748 -111.78645064 61.85830102 -109.6796875 61.78710938 C-103.96543247 61.60323069 -98.25093927 61.45944823 -92.53515625 61.33251953 C-90.14957928 61.2768341 -87.76414942 61.21450429 -85.37890625 61.14599609 C-81.89861967 61.04632991 -78.41838274 60.96619463 -74.9375 60.890625 C-73.86685303 60.85640442 -72.79620605 60.82218384 -71.69311523 60.78692627 C-70.71028564 60.76990662 -69.72745605 60.75288696 -68.71484375 60.73535156 C-67.84980225 60.71394104 -66.98476074 60.69253052 -66.09350586 60.67047119 C-65.40264893 60.7792157 -64.71179199 60.88796021 -64 61 C-63.34 61.99 -62.68 62.98 -62 64 C-58.67583445 65.17761741 -58.67583445 65.17761741 -55 65 C-51.83333333 63.16666667 -51.83333333 63.16666667 -50 60 C-50.06814151 55.97965076 -50.1176825 53.8823175 -53 51 C-55.13818461 50.64390808 -55.13818461 50.64390808 -57.5 50.6875 C-58.2940625 50.67074219 -59.088125 50.65398437 -59.90625 50.63671875 C-60.5971875 50.75660156 -61.288125 50.87648437 -62 51 C-62.66 51.99 -63.32 52.98 -64 54 C-66.86259706 54.41281541 -69.5283159 54.63153101 -72.40625 54.73046875 C-73.26683517 54.77070663 -74.12742035 54.81094452 -75.01408386 54.85240173 C-77.84229874 54.97947505 -80.67082299 55.08424081 -83.5 55.1875 C-85.44248175 55.2682964 -87.38494592 55.34951666 -89.32739258 55.43115234 C-106.55297532 56.11935153 -123.76378363 56.22431756 -141 56 C-141 55.67 -141 55.34 -141 55 C-140.21496094 55.00902344 -139.42992187 55.01804688 -138.62109375 55.02734375 C-132.42173658 54.98674314 -132.42173658 54.98674314 -126.92578125 52.515625 C-125.80075886 51.28832785 -124.69657901 50.04162205 -123.61328125 48.77734375 C-118.26354807 42.88356991 -110.48227386 42.17839903 -102.9765625 41.1015625 C-101.99429688 40.73804688 -101.01203125 40.37453125 -100 40 C-98.49405761 37.00685309 -98.49405761 37.00685309 -98 34 C-94.75030231 33.88361964 -91.5011417 33.81269419 -88.25 33.75 C-87.32960937 33.71648437 -86.40921875 33.68296875 -85.4609375 33.6484375 C-78.55827845 33.54839896 -78.55827845 33.54839896 -75.546875 35.984375 C-75.03640625 36.64953125 -74.5259375 37.3146875 -74 38 C-70.3282913 38.61195145 -68.71186432 38.48706506 -65.625 36.375 C-63.5246273 33.30522452 -63.46706165 31.65443439 -64 28 C-64.83333333 25.5 -64.83333333 25.5 -67 24 C-70.92403137 23.41957036 -74.24713011 23.74904337 -78 25 C-78 25.66 -78 26.32 -78 27 C-82.95 27 -87.9 27 -93 27 C-87.93323116 16.86646232 -79.16301564 12.2841533 -68.98046875 8.1875 C-57.97138719 4.73367049 -45.38855846 6.51622643 -35 11 C-31.78494056 12.76465668 -28.89380498 14.75318393 -26 17 C-24.948125 17.763125 -23.89625 18.52625 -22.8125 19.3125 C-18.13733828 23.77987676 -14.24826777 28.07044037 -13.6875 34.6875 C-19.48763794 60.58097297 -42.57879016 78.72005911 -63 93 C-52.3688486 88.56603198 -43.69058066 82.57225788 -35 75 C-34.38511719 74.48179688 -33.77023438 73.96359375 -33.13671875 73.4296875 C-23.12628803 64.30323276 -16.06354721 51.75279244 -12 39 C-11.62230469 37.93523437 -11.24460938 36.87046875 -10.85546875 35.7734375 C-9.00801319 30.51177962 -7.50548484 25.56033321 -7 20 C-8.65 20 -10.3 20 -12 20 C-10.3734847 15.24059444 -7.77746363 11.33385641 -5 7.1875 C-4.32324219 6.14819336 -4.32324219 6.14819336 -3.6328125 5.08789062 C-2.47765853 3.35345087 -1.24461741 1.67140344 0 0 Z " fill="#0284F2" transform="translate(208,53)"/>
<path d="M0 0 C1.65 0.66 3.3 1.32 5 2 C5.05607422 3.37285156 5.05607422 3.37285156 5.11328125 4.7734375 C5.17902344 5.96195312 5.24476563 7.15046875 5.3125 8.375 C5.37050781 9.55835937 5.42851562 10.74171875 5.48828125 11.9609375 C5.74158203 13.46527344 5.74158203 13.46527344 6 15 C8.90092502 16.93395001 9.89674737 17.30131941 13.1875 17.625 C15.0746875 17.810625 15.0746875 17.810625 17 18 C20.15659246 26.87791629 20.03089882 35.54201507 16.44140625 44.296875 C10.8435653 54.79472306 2.05834319 60.3138856 -9 64 C-11.00904644 64.0890016 -13.02096968 64.11760452 -15.03198242 64.11352539 C-16.27304245 64.11344986 -17.51410248 64.11337433 -18.79277039 64.11329651 C-20.14700358 64.10818991 -21.50123637 64.10297391 -22.85546875 64.09765625 C-24.24123585 64.09579083 -25.62700361 64.09436751 -27.01277161 64.09336853 C-30.6574791 64.0895531 -34.30214665 64.07973113 -37.94683838 64.06866455 C-41.66702738 64.0584295 -45.38722285 64.05386642 -49.10742188 64.04882812 C-56.40496611 64.03810798 -63.70247746 64.02104325 -71 64 C-70 62 -70 62 -67.83984375 61.2109375 C-66.88207031 60.93507812 -65.92429688 60.65921875 -64.9375 60.375 C-51.30013805 55.96958141 -39.94126943 49.14042425 -29 40 C-28.26394531 39.42765625 -27.52789062 38.8553125 -26.76953125 38.265625 C-14.585246 28.44037302 -6.7594735 13.83579732 0 0 Z " fill="#06375D" transform="translate(210,103)"/>
<path d="M0 0 C0.69416016 -0.01224609 1.38832031 -0.02449219 2.10351562 -0.03710938 C3.92470901 -0.04239842 5.7453692 0.06580793 7.5625 0.1875 C9.5625 2.1875 9.5625 2.1875 9.828125 5.375 C9.82296875 6.633125 9.8178125 7.89125 9.8125 9.1875 C9.81765625 10.445625 9.8228125 11.70375 9.828125 13 C9.5625 16.1875 9.5625 16.1875 7.5625 18.1875 C4.99957683 18.35913731 2.55904143 18.42014558 0 18.375 C-0.69802734 18.37435547 -1.39605469 18.37371094 -2.11523438 18.37304688 C-7.29718842 18.32781158 -7.29718842 18.32781158 -8.4375 17.1875 C-8.53731214 14.5101862 -8.57629875 11.86445825 -8.5625 9.1875 C-8.56636719 8.43726562 -8.57023438 7.68703125 -8.57421875 6.9140625 C-8.560562 -0.65177442 -6.91305803 0.00638325 0 0 Z " fill="#0885F2" transform="translate(226.4375,99.8125)"/>
<path d="M0 0 C3.63 0 7.26 0 11 0 C11.09765625 7.71484375 11.09765625 7.71484375 11 10 C10 11 10 11 7.96875 11.1328125 C7.1540625 11.13023438 6.339375 11.12765625 5.5 11.125 C4.6853125 11.12757812 3.870625 11.13015625 3.03125 11.1328125 C1 11 1 11 0 10 C-0.14257189 6.66381769 -0.04228157 3.34024394 0 0 Z " fill="#03345B" transform="translate(236,89)"/>
<path d="M0 0 C0.495 1.485 0.495 1.485 1 3 C-10.55 3 -22.1 3 -34 3 C-30.47242678 1.23621339 -29.255829 0.73901319 -25.5859375 0.5859375 C-24.74160156 0.54726562 -23.89726563 0.50859375 -23.02734375 0.46875 C-22.15207031 0.4378125 -21.27679688 0.406875 -20.375 0.375 C-19.52292969 0.33632812 -18.67085937 0.29765625 -17.79296875 0.2578125 C-11.86026356 0.00650275 -5.9373714 -0.04294375 0 0 Z " fill="#B2C1FC" transform="translate(71,132)"/>
<path d="M0 0 C0.66 0.33 1.32 0.66 2 1 C1.01 1.99 0.02 2.98 -1 4 C-0.67 4.66 -0.34 5.32 0 6 C-1.89326541 7.12931621 -3.7897264 8.25327616 -5.6875 9.375 C-6.74324219 10.00148437 -7.79898438 10.62796875 -8.88671875 11.2734375 C-11.58173976 12.76804137 -14.05896166 14.0881278 -17 15 C-17.99 14.67 -18.98 14.34 -20 14 C-19.05898437 13.40832031 -18.11796875 12.81664062 -17.1484375 12.20703125 C-15.89048433 11.40907588 -14.63267975 10.61088624 -13.375 9.8125 C-12.75753906 9.42513672 -12.14007813 9.03777344 -11.50390625 8.63867188 C-7.39500213 6.02194873 -3.68286578 3.18992836 0 0 Z " fill="#CFDAFD" transform="translate(161,133)"/>
<path d="M0 0 C2.31 0 4.62 0 7 0 C7.042721 1.66611905 7.04063832 3.33382885 7 5 C6 6 6 6 3.5 6.125 C1 6 1 6 0 5 C-0.04063832 3.33382885 -0.042721 1.66611905 0 0 Z " fill="#21425D" transform="translate(228,83)"/>
<path d="M0 0 C2.0625 0.4375 2.0625 0.4375 4 1 C4.5625 2.9375 4.5625 2.9375 5 5 C4 6 4 6 1.4375 6.0625 C0.2309375 6.0315625 0.2309375 6.0315625 -1 6 C-1.042721 4.33388095 -1.04063832 2.66617115 -1 1 C-0.67 0.67 -0.34 0.34 0 0 Z " fill="#7F94FA" transform="translate(119,134)"/>
<path d="M0 0 C1.65 0.33 3.3 0.66 5 1 C4.6875 2.9375 4.6875 2.9375 4 5 C3.01 5.33 2.02 5.66 1 6 C0.34 5.67 -0.32 5.34 -1 5 C-0.67 3.35 -0.34 1.7 0 0 Z " fill="#7F94FA" transform="translate(149,108)"/>
<path d="M0 0 C2.0625 0.4375 2.0625 0.4375 4 1 C4 2.32 4 3.64 4 5 C2.68 5.33 1.36 5.66 0 6 C-0.38218767 4.34385343 -0.71395102 2.67542976 -1 1 C-0.67 0.67 -0.34 0.34 0 0 Z " fill="#7A8FFA" transform="translate(135,81)"/>
</svg>
