<?xml version="1.0" encoding="UTF-8"?>
<svg version="1.1" xmlns="http://www.w3.org/2000/svg" width="500" height="126">
<path d="M0 0 C3.34910895 3.34910895 4.57447712 4.68087301 6.25 8.75 C6.75273437 9.94882812 6.75273437 9.94882812 7.265625 11.171875 C7.50796875 11.77515625 7.7503125 12.3784375 8 13 C7.34 13.33 6.68 13.66 6 14 C5.01 13.505 5.01 13.505 4 13 C3.9071875 14.8253125 3.9071875 14.8253125 3.8125 16.6875 C2.56265554 27.59367698 -2.69903272 37.20135199 -9 46 C-9.44859375 46.63421875 -9.8971875 47.2684375 -10.359375 47.921875 C-22.09839232 62.97543838 -40.23410544 68.92688724 -58.40625 71.31640625 C-65.10917691 71.72868945 -71.16947285 68.60645517 -76.375 64.625 C-79.10959265 61.89040735 -80.56957154 59.57607115 -82 56 C-82 55.34 -82 54.68 -82 54 C-77.75005737 53.94194067 -73.50021676 53.90638346 -69.25 53.875 C-68.0434375 53.85824219 -66.836875 53.84148437 -65.59375 53.82421875 C-64.43359375 53.81777344 -63.2734375 53.81132813 -62.078125 53.8046875 C-61.00981445 53.79421387 -59.94150391 53.78374023 -58.84082031 53.77294922 C-56.02020895 53.99838481 -54.39212537 54.54151006 -52 56 C-51.01 55.34 -50.02 54.68 -49 54 C-49.33 52.35 -49.66 50.7 -50 49 C-52.41645782 48.83312552 -52.41645782 48.83312552 -55 49 C-55.66 49.66 -56.32 50.32 -57 51 C-58.94888306 51.24050903 -58.94888306 51.24050903 -61.35791016 51.22705078 C-62.25869293 51.22689972 -63.15947571 51.22674866 -64.08755493 51.22659302 C-65.06155243 51.21627045 -66.03554993 51.20594788 -67.0390625 51.1953125 C-68.03505463 51.1924826 -69.03104675 51.18965271 -70.05722046 51.18673706 C-73.24660118 51.1755184 -76.43570378 51.15041081 -79.625 51.125 C-81.78385012 51.11497238 -83.94270463 51.10584615 -86.1015625 51.09765625 C-91.40113699 51.07557361 -96.70054863 51.04207958 -102 51 C-98.06138704 48.80258852 -94.67216409 48.76632678 -90.25 48.875 C-89.55261719 48.88402344 -88.85523438 48.89304688 -88.13671875 48.90234375 C-86.42433042 48.92580112 -84.71211996 48.96166896 -83 49 C-82.92652344 48.06027344 -82.92652344 48.06027344 -82.8515625 47.1015625 C-82.77679688 46.28429687 -82.70203125 45.46703125 -82.625 44.625 C-82.55539063 43.81289062 -82.48578125 43.00078125 -82.4140625 42.1640625 C-82 40 -82 40 -80 38 C-78.16500854 37.7215271 -78.16500854 37.7215271 -75.91748047 37.68115234 C-75.07675995 37.66128265 -74.23603943 37.64141296 -73.36984253 37.62094116 C-72.46146637 37.60938995 -71.55309021 37.59783875 -70.6171875 37.5859375 C-69.68778351 37.56657135 -68.75837952 37.5472052 -67.80081177 37.5272522 C-64.8256352 37.46736315 -61.85042012 37.4210339 -58.875 37.375 C-56.86066 37.33682879 -54.84633646 37.29777757 -52.83203125 37.2578125 C-47.88815425 37.161654 -42.94420083 37.0776576 -38 37 C-37.67 37.66 -37.34 38.32 -37 39 C-35.35 39 -33.7 39 -32 39 C-30.98888907 35.95086772 -30.98888907 35.95086772 -32 33 C-34.41645782 32.83312552 -34.41645782 32.83312552 -37 33 C-37.66 33.66 -38.32 34.32 -39 35 C-41.13870239 35.2784729 -41.13870239 35.2784729 -43.81689453 35.31884766 C-44.81778107 35.33871735 -45.8186676 35.35858704 -46.84988403 35.37905884 C-48.47493362 35.39638565 -48.47493362 35.39638565 -50.1328125 35.4140625 C-51.79327103 35.44311172 -51.79327103 35.44311172 -53.48727417 35.4727478 C-57.03310369 35.53266754 -60.57896545 35.57897873 -64.125 35.625 C-66.52475397 35.66316835 -68.92449408 35.70221939 -71.32421875 35.7421875 C-77.21602302 35.83837916 -83.10791036 35.92339015 -89 36 C-88.67 35.34 -88.34 34.68 -88 34 C-86.21484375 33.796875 -86.21484375 33.796875 -83.9375 33.75 C-79.03615686 33.33766478 -76.55925031 31.50772794 -72.84375 28.43359375 C-68.91611543 25.37969145 -64.86077669 24.71407196 -60 25 C-59.67 23.68 -59.34 22.36 -59 21 C-57.04196493 20.94610913 -55.08351091 20.90725783 -53.125 20.875 C-51.48917969 20.84019531 -51.48917969 20.84019531 -49.8203125 20.8046875 C-47 21 -47 21 -45 23 C-42.39719432 22.67958603 -42.39719432 22.67958603 -40 22 C-40 20.35 -40 18.7 -40 17 C-41.98 16.67 -43.96 16.34 -46 16 C-46 16.66 -46 17.32 -46 18 C-53.26 18 -60.52 18 -68 18 C-68 17.67 -68 17.34 -68 17 C-67.39414063 17.020625 -66.78828125 17.04125 -66.1640625 17.0625 C-59.05363451 16.88747408 -55.83174699 14.6127682 -50.578125 10.01171875 C-45.51074387 6.0576259 -39.75419366 4.33823431 -33.4375 3.5625 C-23.16463597 4.86995542 -17.15179131 8.40809846 -10 16 C-8 19 -8 19 -8.125 22.125 C-9.17025126 26.75396985 -10.92800682 30.75000469 -13 35 C-9.01391504 27.87861501 -6.68555806 20.97556739 -5 13 C-5.99 12.67 -6.98 12.34 -8 12 C-5.36 8.04 -2.72 4.08 0 0 Z M-16 38 C-16.66 39.32 -17.32 40.64 -18 42 C-17.01 41.34 -16.02 40.68 -15 40 C-15.33 39.34 -15.66 38.68 -16 38 Z M-20 43 C-20.33 43.66 -20.66 44.32 -21 45 C-20.34 45 -19.68 45 -19 45 C-19.33 44.34 -19.66 43.68 -20 43 Z M-26 48 C-27.63676257 49.9600281 -27.63676257 49.9600281 -29 52 C-25.87802522 50.6910428 -25.87802522 50.6910428 -24 48 C-24.66 48 -25.32 48 -26 48 Z " fill="#696969" transform="translate(131,28)"/>
<path d="M0 0 C2.34765625 -0.328125 2.34765625 -0.328125 5.0625 -0.25 C5.96097656 -0.23453125 6.85945313 -0.2190625 7.78515625 -0.203125 C10 0 10 0 11 1 C11.07205511 2.68608966 11.08386068 4.37500659 11.0625 6.0625 C11.05347656 6.98160156 11.04445312 7.90070313 11.03515625 8.84765625 C11.02355469 9.55792969 11.01195312 10.26820312 11 11 C9.35 11.66 7.7 12.32 6 13 C6.495 14.485 6.495 14.485 7 16 C7.81450142 22.64953617 6.78679697 28.40896736 3 34 C-1.45463137 38.27537055 -5.70666967 41.13341745 -12.01245117 41.11352539 C-12.81305466 41.11344986 -13.61365814 41.11337433 -14.43852234 41.11329651 C-15.29798965 41.10813522 -16.15745697 41.10297394 -17.04296875 41.09765625 C-17.9265657 41.0962413 -18.81016266 41.09482635 -19.72053528 41.09336853 C-22.54289128 41.08777069 -25.36516797 41.07521861 -28.1875 41.0625 C-30.10091031 41.05748472 -32.01432187 41.05292186 -33.92773438 41.04882812 C-38.61852014 41.03780197 -43.30924663 41.02053883 -48 41 C-45.25034341 39.16689561 -42.47987812 37.7574351 -39.50415039 36.33666992 C-23.3162277 28.54990972 -13.0323223 18.28513971 -5 2 C-4.01 2.33 -3.02 2.66 -2 3 C-1.34 2.01 -0.68 1.02 0 0 Z " fill="#282828" transform="translate(137,57)"/>
<path d="M0 0 C1.23492187 -0.03738281 2.46984375 -0.07476562 3.7421875 -0.11328125 C7.125 0.3125 7.125 0.3125 9.31201172 1.87719727 C11.82167596 5.24831238 11.58184353 7.53135782 11.515625 11.703125 C11.50996521 12.40773865 11.50430542 13.11235229 11.49847412 13.83831787 C11.47615078 16.08041428 11.42596754 18.32088988 11.375 20.5625 C11.35492952 22.08591435 11.3366797 23.60935386 11.3203125 25.1328125 C11.27630118 28.8598983 11.20730372 32.58604087 11.125 36.3125 C7.44711882 37.53846039 6.34050387 37.15560077 2.125 36.3125 C2.125 32.6825 2.125 29.0525 2.125 25.3125 C0.805 25.3125 -0.515 25.3125 -1.875 25.3125 C-1.875 28.9425 -1.875 32.5725 -1.875 36.3125 C-7.5 37.4375 -7.5 37.4375 -10.875 36.3125 C-10.92452706 31.97088175 -10.96077954 27.62941425 -10.98486328 23.28759766 C-10.99490591 21.81133153 -11.00854265 20.33508521 -11.02587891 18.85888672 C-11.05020421 16.73399966 -11.0615004 14.60937615 -11.0703125 12.484375 C-11.08078613 11.2065918 -11.09125977 9.92880859 -11.10205078 8.61230469 C-10.88934847 5.52103107 -10.61415628 3.83538313 -8.875 1.3125 C-5.93776222 -0.15611889 -3.26907643 0.06456596 0 0 Z M-1.875 6.3125 C-1.875 10.2725 -1.875 14.2325 -1.875 18.3125 C-0.555 18.3125 0.765 18.3125 2.125 18.3125 C2.125 14.3525 2.125 10.3925 2.125 6.3125 C0.805 6.3125 -0.515 6.3125 -1.875 6.3125 Z " fill="#696969" transform="translate(271.875,46.6875)"/>
<path d="M0 0 C2.73083902 -0.13548815 5.45491807 -0.23429855 8.1875 -0.3125 C8.95642578 -0.35439453 9.72535156 -0.39628906 10.51757812 -0.43945312 C14.69221235 -0.52903755 16.50448776 -0.34999767 20.01367188 2.12866211 C22.34036076 5.49200871 22.62038387 7.19859677 22.59375 11.25390625 C22.59117187 12.43791016 22.58859375 13.62191406 22.5859375 14.84179688 C22.54339844 16.68354492 22.54339844 16.68354492 22.5 18.5625 C22.50386719 20.41004883 22.50386719 20.41004883 22.5078125 22.29492188 C22.39744831 32.42083626 22.39744831 32.42083626 19 36 C15.48185834 37.5021279 11.5812693 37.13281092 7.8125 37.125 C5.93498047 37.12886719 5.93498047 37.12886719 4.01953125 37.1328125 C1 37 1 37 0 36 C-0.08855161 33.3337397 -0.11524673 30.69352886 -0.09765625 28.02734375 C-0.0962413 27.22970108 -0.09482635 26.43205841 -0.09336853 25.61024475 C-0.08775316 23.05262565 -0.07519812 20.49509282 -0.0625 17.9375 C-0.05748698 16.20768355 -0.05292373 14.47786574 -0.04882812 12.74804688 C-0.03777875 8.49866447 -0.02050386 4.24934688 0 0 Z M9 6 C9 13.92 9 21.84 9 30 C10.32 30 11.64 30 13 30 C13 22.08 13 14.16 13 6 C11.68 6 10.36 6 9 6 Z " fill="#696969" transform="translate(286,47)"/>
<path d="M0 0 C0.68126953 -0.02900391 1.36253906 -0.05800781 2.06445312 -0.08789062 C7.07884158 -0.1517369 7.07884158 -0.1517369 9.25878906 1.94067383 C10.94779848 5.01346905 10.93503815 7.18889323 10.92578125 10.6875 C10.92513672 11.91984375 10.92449219 13.1521875 10.92382812 14.421875 C10.90771484 15.70578125 10.89160156 16.9896875 10.875 18.3125 C10.87983398 20.23835938 10.87983398 20.23835938 10.88476562 22.203125 C10.82315723 32.911785 10.82315723 32.911785 8.5625 36.3125 C5.74683745 37.72033127 3.3261293 37.5201814 0.1875 37.5625 C-1.52566406 37.60117188 -1.52566406 37.60117188 -3.2734375 37.640625 C-6.71008246 37.28423219 -8.03669789 36.74743674 -10.4375 34.3125 C-12.15042329 29.17373014 -11.62210346 23.75388115 -11.625 18.375 C-11.63724609 17.18197266 -11.64949219 15.98894531 -11.66210938 14.75976562 C-11.66404297 13.61314453 -11.66597656 12.46652344 -11.66796875 11.28515625 C-11.67207764 10.23593994 -11.67618652 9.18672363 -11.68041992 8.10571289 C-11.43551813 5.28971153 -10.98079123 3.65983613 -9.4375 1.3125 C-6.41881565 -0.19684217 -3.30941602 0.04669919 0 0 Z M-2.4375 6.3125 C-2.4375 14.5625 -2.4375 22.8125 -2.4375 31.3125 C-1.1175 31.3125 0.2025 31.3125 1.5625 31.3125 C1.5625 23.0625 1.5625 14.8125 1.5625 6.3125 C0.2425 6.3125 -1.0775 6.3125 -2.4375 6.3125 Z " fill="#6A6A6A" transform="translate(247.4375,46.6875)"/>
<path d="M0 0 C2.64 0 5.28 0 8 0 C8 4.95 8 9.9 8 15 C9.65 15 11.3 15 13 15 C12.98839844 14.00097656 12.97679687 13.00195312 12.96484375 11.97265625 C12.95582031 10.68230469 12.94679688 9.39195313 12.9375 8.0625 C12.92589844 6.77472656 12.91429687 5.48695312 12.90234375 4.16015625 C13 1 13 1 14 0 C16.64 0 19.28 0 22 0 C22 11.88 22 23.76 22 36 C18 37 18 37 13 36 C13 31.71 13 27.42 13 23 C11.35 23 9.7 23 8 23 C8 27.29 8 31.58 8 36 C5 37 5 37 0 36 C0 24.12 0 12.24 0 0 Z " fill="#6A6A6A" transform="translate(368,47)"/>
<path d="M0 0 C0.66902344 -0.020625 1.33804687 -0.04125 2.02734375 -0.0625 C6.43273428 -0.09711996 9.37416689 0.33826447 12.75 3.25 C14.21812595 7.60273523 14.12197316 12.01008946 12.8125 16.375 C12.461875 16.99375 12.11125 17.6125 11.75 18.25 C12.08 18.58 12.41 18.91 12.75 19.25 C12.82325168 22.11267567 12.84238205 24.950719 12.8125 27.8125 C12.80798828 28.61880859 12.80347656 29.42511719 12.79882812 30.25585938 C12.78700518 32.25393756 12.76906914 34.25197783 12.75 36.25 C10.26588385 37.49205807 8.49800896 37.39092354 5.75 37.25 C4.75 36.25 4.75 36.25 4.65234375 33.08984375 C4.66394531 31.80207031 4.67554688 30.51429687 4.6875 29.1875 C4.69652344 27.89714844 4.70554687 26.60679688 4.71484375 25.27734375 C4.72644531 24.27832031 4.73804688 23.27929688 4.75 22.25 C3.43 22.25 2.11 22.25 0.75 22.25 C0.75 26.87 0.75 31.49 0.75 36.25 C-2.31890187 37.78445094 -4.95094266 36.79984289 -8.25 36.25 C-8.27465098 31.28377651 -8.29283649 26.31758834 -8.30493164 21.35131836 C-8.3099719 19.66055684 -8.31680405 17.96979971 -8.32543945 16.27905273 C-8.33751857 13.85399293 -8.34323123 11.42899056 -8.34765625 9.00390625 C-8.35281754 8.24348526 -8.35797882 7.48306427 -8.36329651 6.69960022 C-8.36349238 4.8826743 -8.31197277 3.06586873 -8.25 1.25 C-6.286987 -0.713013 -2.67160806 0.02012511 0 0 Z M0.75 6.25 C0.75 9.55 0.75 12.85 0.75 16.25 C2.07 16.25 3.39 16.25 4.75 16.25 C4.75 12.95 4.75 9.65 4.75 6.25 C3.43 6.25 2.11 6.25 0.75 6.25 Z " fill="#6A6A6A" transform="translate(420.25,46.75)"/>
<path d="M0 0 C2.64 0 5.28 0 8 0 C8 10.23 8 20.46 8 31 C9.32 31 10.64 31 12 31 C11.99476318 30.09644775 11.98952637 29.19289551 11.98413086 28.26196289 C11.96712314 24.92048511 11.95456667 21.57905308 11.94506836 18.23754883 C11.94002899 16.78929927 11.93319747 15.34105483 11.92456055 13.89282227 C11.91247753 11.81525412 11.90676789 9.73775303 11.90234375 7.66015625 C11.89448853 5.78275757 11.89448853 5.78275757 11.88647461 3.86743164 C12 1 12 1 13 0 C15.67058851 -0.14115161 18.32432238 -0.04247107 21 0 C21.04951788 4.4840341 21.08577526 8.96792239 21.10986328 13.45214844 C21.11990744 14.97691623 21.13354531 16.50166484 21.15087891 18.02636719 C21.17519738 20.22075138 21.18649889 22.41488042 21.1953125 24.609375 C21.20578613 25.92905273 21.21625977 27.24873047 21.22705078 28.60839844 C21.01701697 31.74580679 20.77345817 33.44914617 19 36 C16.18792765 37.40603618 13.75990534 37.24557505 10.625 37.3125 C8.91183594 37.36857422 8.91183594 37.36857422 7.1640625 37.42578125 C4 37 4 37 1.82666016 35.44897461 C-0.6329237 32.15144913 -0.50686552 29.33860674 -0.390625 25.390625 C-0.38496521 24.66381531 -0.37930542 23.93700562 -0.37347412 23.18817139 C-0.35114553 20.87476755 -0.30096048 18.5629328 -0.25 16.25 C-0.22993023 14.67840784 -0.21168029 13.10679132 -0.1953125 11.53515625 C-0.15129293 7.68950283 -0.08229375 3.84501711 0 0 Z " fill="#6A6A6A" transform="translate(171,47)"/>
<path d="M0 0 C1.2375 0.00128906 2.475 0.00257812 3.75 0.00390625 C7 0.4375 7 0.4375 8.89453125 1.734375 C10.65060772 4.43984971 10.70229243 7.28179971 11 10.4375 C8.03 10.4375 5.06 10.4375 2 10.4375 C2 9.4475 2 8.4575 2 7.4375 C0.68 7.4375 -0.64 7.4375 -2 7.4375 C-2 9.7475 -2 12.0575 -2 14.4375 C-0.783125 14.334375 0.43375 14.23125 1.6875 14.125 C4.9357304 14.17115603 6.04826483 14.46464896 9 16.125 C12.0813369 21.22846424 12.04280638 26.62655133 11 32.4375 C9.37109375 35.30859375 9.37109375 35.30859375 7 37.4375 C3.90625 38.06640625 3.90625 38.06640625 0.5 38 C-0.6240625 38.00128906 -1.748125 38.00257812 -2.90625 38.00390625 C-6.59562159 37.32845312 -7.82117337 36.45718447 -10 33.4375 C-10.50755847 30.65607957 -10.19028514 28.2917771 -10 25.4375 C-7.36 25.4375 -4.72 25.4375 -2 25.4375 C-2 27.0875 -2 28.7375 -2 30.4375 C-0.35 30.4375 1.3 30.4375 3 30.4375 C3 27.7975 3 25.1575 3 22.4375 C2.39671875 22.48390625 1.7934375 22.5303125 1.171875 22.578125 C-0.02695312 22.63226563 -0.02695312 22.63226563 -1.25 22.6875 C-2.03890625 22.73390625 -2.8278125 22.7803125 -3.640625 22.828125 C-6 22.4375 -6 22.4375 -8.26953125 20.859375 C-10.59957802 17.59836147 -10.5006771 15.41344522 -10.4375 11.4375 C-10.43621094 10.220625 -10.43492187 9.00375 -10.43359375 7.75 C-9.51192186 0.70875893 -6.79005482 -0.10609461 0 0 Z " fill="#6A6A6A" transform="translate(331,46.5625)"/>
<path d="M0 0 C2.58361518 -0.05407567 5.16609255 -0.093707 7.75 -0.125 C8.84441406 -0.15013672 8.84441406 -0.15013672 9.9609375 -0.17578125 C16.93544865 -0.2391859 16.93544865 -0.2391859 20 2 C22.81842969 7.23422656 22.32421585 13.33875507 21 19 C19.42248259 20.95785038 18.24624085 21.87687957 16 23 C13.6670134 23.04022391 11.33293334 23.04320247 9 23 C9.01160156 23.92683594 9.02320313 24.85367188 9.03515625 25.80859375 C9.04417969 27.00613281 9.05320313 28.20367187 9.0625 29.4375 C9.07410156 30.63246094 9.08570313 31.82742187 9.09765625 33.05859375 C9 36 9 36 8 37 C4.5 37.125 4.5 37.125 1 37 C0 36 0 36 -0.11352539 32.58178711 C-0.11336628 31.06363012 -0.10767226 29.54546771 -0.09765625 28.02734375 C-0.0962413 27.22970108 -0.09482635 26.43205841 -0.09336853 25.61024475 C-0.08775316 23.05262565 -0.07519812 20.49509282 -0.0625 17.9375 C-0.05748698 16.20768355 -0.05292373 14.47786574 -0.04882812 12.74804688 C-0.03777875 8.49866447 -0.02050386 4.24934688 0 0 Z M9 6 C9 9.3 9 12.6 9 16 C10.32 16 11.64 16 13 16 C13 12.7 13 9.4 13 6 C11.68 6 10.36 6 9 6 Z " fill="#6A6A6A" transform="translate(195,47)"/>
<path d="M0 0 C16 0 16 0 20 2 C21.50929383 5.01858766 21.22510073 8.12900954 21.25 11.4375 C21.270625 12.11876953 21.29125 12.80003906 21.3125 13.50195312 C21.35161725 18.49429167 21.35161725 18.49429167 19.671875 20.91015625 C15.89636941 23.37129191 12.36268508 23.08231481 8 23 C8 27.29 8 31.58 8 36 C4 37 4 37 0 36 C0 24.12 0 12.24 0 0 Z M8 6 C8 9.3 8 12.6 8 16 C9.65 16 11.3 16 13 16 C13 13.03 13 10.06 13 7 C11.35 6.67 9.7 6.34 8 6 Z " fill="#6A6A6A" transform="translate(345,47)"/>
<path d="M0 0 C5.61 0 11.22 0 17 0 C17 2.31 17 4.62 17 7 C14.36 7 11.72 7 9 7 C9 9.64 9 12.28 9 15 C10.7015625 14.9690625 10.7015625 14.9690625 12.4375 14.9375 C16 15 16 15 17 16 C17.125 18.5 17.125 18.5 17 21 C16 22 16 22 12.4375 22.0625 C11.303125 22.041875 10.16875 22.02125 9 22 C9 24.31 9 26.62 9 29 C11.64 29 14.28 29 17 29 C17 31.31 17 33.62 17 36 C13.60607349 37.13130884 10.94665128 37.1329194 7.375 37.125 C6.20710938 37.12757812 5.03921875 37.13015625 3.8359375 37.1328125 C1 37 1 37 0 36 C-0.08855161 33.3337397 -0.11524673 30.69352886 -0.09765625 28.02734375 C-0.0962413 27.22970108 -0.09482635 26.43205841 -0.09336853 25.61024475 C-0.08775316 23.05262565 -0.07519812 20.49509282 -0.0625 17.9375 C-0.05748698 16.20768355 -0.05292373 14.47786574 -0.04882812 12.74804688 C-0.03862791 8.49863761 -0.01905568 4.24941584 0 0 Z " fill="#6A6A6A" transform="translate(393,47)"/>
<path d="M0 0 C1.48831242 0.00667405 2.97660807 0.01863442 4.46484375 0.03515625 C5.22345703 0.03966797 5.98207031 0.04417969 6.76367188 0.04882812 C8.64326246 0.06064945 10.52281274 0.07858547 12.40234375 0.09765625 C12.40234375 2.40765625 12.40234375 4.71765625 12.40234375 7.09765625 C9.76234375 7.09765625 7.12234375 7.09765625 4.40234375 7.09765625 C4.40234375 9.73765625 4.40234375 12.37765625 4.40234375 15.09765625 C7.04234375 15.09765625 9.68234375 15.09765625 12.40234375 15.09765625 C12.44488731 17.09720371 12.44315158 19.09807261 12.40234375 21.09765625 C11.40234375 22.09765625 11.40234375 22.09765625 7.83984375 22.16015625 C6.70546875 22.13953125 5.57109375 22.11890625 4.40234375 22.09765625 C4.40234375 24.40765625 4.40234375 26.71765625 4.40234375 29.09765625 C7.04234375 29.09765625 9.68234375 29.09765625 12.40234375 29.09765625 C12.40234375 31.40765625 12.40234375 33.71765625 12.40234375 36.09765625 C8.71833791 37.3286978 5.48759399 37.00532877 1.65234375 36.66015625 C0.481875 36.55832031 -0.68859375 36.45648438 -1.89453125 36.3515625 C-2.7865625 36.26777344 -3.67859375 36.18398437 -4.59765625 36.09765625 C-4.62230723 31.13143276 -4.64049274 26.16524459 -4.65258789 21.19897461 C-4.65762815 19.50821309 -4.6644603 17.81745596 -4.6730957 16.12670898 C-4.68517482 13.70164918 -4.69088748 11.27664681 -4.6953125 8.8515625 C-4.70047379 8.09114151 -4.70563507 7.33072052 -4.71095276 6.54725647 C-4.71114863 4.73033055 -4.65962902 2.91352498 -4.59765625 1.09765625 C-3.59765625 0.09765625 -3.59765625 0.09765625 0 0 Z " fill="#6B6B6B" transform="translate(440.59765625,46.90234375)"/>
<path d="M0 0 C6.15234375 -0.09765625 6.15234375 -0.09765625 8 0 C9 1 9 1 9.11352539 3.68383789 C9.10828857 4.85164795 9.10305176 6.01945801 9.09765625 7.22265625 C9.09443359 8.48271484 9.09121094 9.74277344 9.08789062 11.04101562 C9.07953403 12.38151109 9.07106907 13.72200588 9.0625 15.0625 C9.0574866 16.40689942 9.05292342 17.7513006 9.04882812 19.09570312 C9.03699488 22.39717941 9.02050971 25.69856803 9 29 C11.64 29 14.28 29 17 29 C17 31.31 17 33.62 17 36 C13.60607349 37.13130884 10.94665128 37.1329194 7.375 37.125 C6.20710937 37.12757812 5.03921875 37.13015625 3.8359375 37.1328125 C1 37 1 37 0 36 C-0.08855161 33.3337397 -0.11524673 30.69352886 -0.09765625 28.02734375 C-0.0962413 27.22970108 -0.09482635 26.43205841 -0.09336853 25.61024475 C-0.08775316 23.05262565 -0.07519812 20.49509282 -0.0625 17.9375 C-0.05748698 16.20768355 -0.05292373 14.47786574 -0.04882812 12.74804688 C-0.03777875 8.49866447 -0.02050386 4.24934688 0 0 Z " fill="#6B6B6B" transform="translate(218,47)"/>
<path d="M0 0 C0.9075 0.00257812 1.815 0.00515625 2.75 0.0078125 C4.11125 0.00394531 4.11125 0.00394531 5.5 0 C7.75 0.1328125 7.75 0.1328125 8.75 1.1328125 C8.84823937 2.79710301 8.87973631 4.46563181 8.875 6.1328125 C8.87757813 7.0403125 8.88015625 7.9478125 8.8828125 8.8828125 C8.75 11.1328125 8.75 11.1328125 7.75 12.1328125 C6.08570949 12.23105187 4.41718069 12.26254881 2.75 12.2578125 C1.38875 12.26167969 1.38875 12.26167969 0 12.265625 C-2.25 12.1328125 -2.25 12.1328125 -3.25 11.1328125 C-3.34823937 9.46852199 -3.37973631 7.79999319 -3.375 6.1328125 C-3.37757813 5.2253125 -3.38015625 4.3178125 -3.3828125 3.3828125 C-3.20347538 0.34463064 -3.03818186 0.17933712 0 0 Z " fill="#686868" transform="translate(139.25,56.8671875)"/>
<path d="M0 0 C1.99954746 -0.04254356 4.00041636 -0.04080783 6 0 C7 1 7 1 7.0625 4.5625 C7.041875 5.696875 7.02125 6.83125 7 8 C4.66705225 8.04241723 2.33297433 8.04092937 0 8 C-0.33 7.67 -0.66 7.34 -1 7 C-0.71269945 4.66055264 -0.38063221 2.3260857 0 0 Z " fill="#2D2D2D" transform="translate(148,50)"/>
<path d="M0 0 C2.33294775 -0.04241723 4.66702567 -0.04092937 7 0 C8 1 8 1 8.125 3.5 C8 6 8 6 7 7 C4.66702567 7.04092937 2.33294775 7.04241723 0 7 C0 8.98 0 10.96 0 13 C-0.33 13 -0.66 13 -1 13 C-1 10.69 -1 8.38 -1 6 C0.32 6 1.64 6 3 6 C3.66 4.35 4.32 2.7 5 1 C3.35 1 1.7 1 0 1 C0 0.67 0 0.34 0 0 Z " fill="#727272" transform="translate(402,62)"/>
<path d="M0 0 C7.59 0 15.18 0 23 0 C23 0.33 23 0.66 23 1 C22.16021606 1.029729 22.16021606 1.029729 21.3034668 1.06005859 C18.76434146 1.15537783 16.22603112 1.26502753 13.6875 1.375 C12.36588867 1.42140625 12.36588867 1.42140625 11.01757812 1.46875 C10.17001953 1.50742188 9.32246094 1.54609375 8.44921875 1.5859375 C7.66893311 1.6173584 6.88864746 1.6487793 6.0847168 1.68115234 C3.69844232 1.89587889 3.69844232 1.89587889 1 4 C0.67 2.68 0.34 1.36 0 0 Z " fill="#747474" transform="translate(49,82)"/>
<path d="M0 0 C1.98 0.495 1.98 0.495 4 1 C3.34 2.32 2.68 3.64 2 5 C1.01 4.67 0.02 4.34 -1 4 C-0.67 2.68 -0.34 1.36 0 0 Z " fill="#7E7E7E" transform="translate(77,78)"/>
<path d="M0 0 C1.98 0.495 1.98 0.495 4 1 C3.67 1.99 3.34 2.98 3 4 C1.68 3.67 0.36 3.34 -1 3 C-0.67 2.01 -0.34 1.02 0 0 Z " fill="#787878" transform="translate(95,62)"/>
<path d="M0 0 C1.32 0 2.64 0 4 0 C4 1.32 4 2.64 4 4 C2.68 4 1.36 4 0 4 C0 2.68 0 1.36 0 0 Z " fill="#191919" transform="translate(143,47)"/>
<path d="M0 0 C0.99 0.33 1.98 0.66 3 1 C2.67 2.32 2.34 3.64 2 5 C1.01 4.67 0.02 4.34 -1 4 C-0.67 2.68 -0.34 1.36 0 0 Z " fill="#7B7B7B" transform="translate(87,45)"/>
<path d="M0 0 C0.99 0 1.98 0 3 0 C3 0.99 3 1.98 3 3 C2.01 2.67 1.02 2.34 0 2 C0 1.34 0 0.68 0 0 Z " fill="#5A5A5A" transform="translate(149,46)"/>
</svg>
