<?xml version="1.0" encoding="UTF-8"?>
<svg version="1.1" xmlns="http://www.w3.org/2000/svg" width="500" height="126">
<path d="M0 0 C3.34910895 3.34910895 4.57447712 4.68087301 6.25 8.75 C6.75273437 9.94882812 6.75273437 9.94882812 7.265625 11.171875 C7.50796875 11.77515625 7.7503125 12.3784375 8 13 C7.34 13.33 6.68 13.66 6 14 C5.01 13.505 5.01 13.505 4 13 C3.9071875 14.8253125 3.9071875 14.8253125 3.8125 16.6875 C2.56265554 27.59367698 -2.69903272 37.20135199 -9 46 C-9.44859375 46.63421875 -9.8971875 47.2684375 -10.359375 47.921875 C-22.09839232 62.97543838 -40.23410544 68.92688724 -58.40625 71.31640625 C-65.10917691 71.72868945 -71.16947285 68.60645517 -76.375 64.625 C-79.10959265 61.89040735 -80.56957154 59.57607115 -82 56 C-82 55.34 -82 54.68 -82 54 C-77.75005737 53.94194067 -73.50021676 53.90638346 -69.25 53.875 C-68.0434375 53.85824219 -66.836875 53.84148437 -65.59375 53.82421875 C-64.43359375 53.81777344 -63.2734375 53.81132813 -62.078125 53.8046875 C-61.00981445 53.79421387 -59.94150391 53.78374023 -58.84082031 53.77294922 C-56.02020895 53.99838481 -54.39212537 54.54151006 -52 56 C-51.01 55.34 -50.02 54.68 -49 54 C-49.33 52.35 -49.66 50.7 -50 49 C-52.41645782 48.83312552 -52.41645782 48.83312552 -55 49 C-55.66 49.66 -56.32 50.32 -57 51 C-58.94888306 51.24050903 -58.94888306 51.24050903 -61.35791016 51.22705078 C-62.25869293 51.22689972 -63.15947571 51.22674866 -64.08755493 51.22659302 C-65.06155243 51.21627045 -66.03554993 51.20594788 -67.0390625 51.1953125 C-68.03505463 51.1924826 -69.03104675 51.18965271 -70.05722046 51.18673706 C-73.24660118 51.1755184 -76.43570378 51.15041081 -79.625 51.125 C-81.78385012 51.11497238 -83.94270463 51.10584615 -86.1015625 51.09765625 C-91.40113699 51.07557361 -96.70054863 51.04207958 -102 51 C-98.06138704 48.80258852 -94.67216409 48.76632678 -90.25 48.875 C-89.55261719 48.88402344 -88.85523438 48.89304688 -88.13671875 48.90234375 C-86.42433042 48.92580112 -84.71211996 48.96166896 -83 49 C-82.92652344 48.06027344 -82.92652344 48.06027344 -82.8515625 47.1015625 C-82.77679688 46.28429687 -82.70203125 45.46703125 -82.625 44.625 C-82.55539063 43.81289062 -82.48578125 43.00078125 -82.4140625 42.1640625 C-82 40 -82 40 -80 38 C-78.16500854 37.7215271 -78.16500854 37.7215271 -75.91748047 37.68115234 C-75.07675995 37.66128265 -74.23603943 37.64141296 -73.36984253 37.62094116 C-72.46146637 37.60938995 -71.55309021 37.59783875 -70.6171875 37.5859375 C-69.68778351 37.56657135 -68.75837952 37.5472052 -67.80081177 37.5272522 C-64.8256352 37.46736315 -61.85042012 37.4210339 -58.875 37.375 C-56.86066 37.33682879 -54.84633646 37.29777757 -52.83203125 37.2578125 C-47.88815425 37.161654 -42.94420083 37.0776576 -38 37 C-37.67 37.66 -37.34 38.32 -37 39 C-35.35 39 -33.7 39 -32 39 C-30.98888907 35.95086772 -30.98888907 35.95086772 -32 33 C-34.41645782 32.83312552 -34.41645782 32.83312552 -37 33 C-37.66 33.66 -38.32 34.32 -39 35 C-41.13870239 35.2784729 -41.13870239 35.2784729 -43.81689453 35.31884766 C-44.81778107 35.33871735 -45.8186676 35.35858704 -46.84988403 35.37905884 C-48.47493362 35.39638565 -48.47493362 35.39638565 -50.1328125 35.4140625 C-51.79327103 35.44311172 -51.79327103 35.44311172 -53.48727417 35.4727478 C-57.03310369 35.53266754 -60.57896545 35.57897873 -64.125 35.625 C-66.52475397 35.66316835 -68.92449408 35.70221939 -71.32421875 35.7421875 C-77.21602302 35.83837916 -83.10791036 35.92339015 -89 36 C-88.67 35.34 -88.34 34.68 -88 34 C-86.21484375 33.796875 -86.21484375 33.796875 -83.9375 33.75 C-79.03615686 33.33766478 -76.55925031 31.50772794 -72.84375 28.43359375 C-68.91611543 25.37969145 -64.86077669 24.71407196 -60 25 C-59.67 23.68 -59.34 22.36 -59 21 C-57.04196493 20.94610913 -55.08351091 20.90725783 -53.125 20.875 C-51.48917969 20.84019531 -51.48917969 20.84019531 -49.8203125 20.8046875 C-47 21 -47 21 -45 23 C-42.39719432 22.67958603 -42.39719432 22.67958603 -40 22 C-40 20.35 -40 18.7 -40 17 C-41.98 16.67 -43.96 16.34 -46 16 C-46 16.66 -46 17.32 -46 18 C-53.26 18 -60.52 18 -68 18 C-68 17.67 -68 17.34 -68 17 C-67.39414063 17.020625 -66.78828125 17.04125 -66.1640625 17.0625 C-59.05363451 16.88747408 -55.83174699 14.6127682 -50.578125 10.01171875 C-45.51074387 6.0576259 -39.75419366 4.33823431 -33.4375 3.5625 C-23.16463597 4.86995542 -17.15179131 8.40809846 -10 16 C-8 19 -8 19 -8.125 22.125 C-9.17025126 26.75396985 -10.92800682 30.75000469 -13 35 C-9.01391504 27.87861501 -6.68555806 20.97556739 -5 13 C-5.99 12.67 -6.98 12.34 -8 12 C-5.36 8.04 -2.72 4.08 0 0 Z M-16 38 C-16.66 39.32 -17.32 40.64 -18 42 C-17.01 41.34 -16.02 40.68 -15 40 C-15.33 39.34 -15.66 38.68 -16 38 Z M-20 43 C-20.33 43.66 -20.66 44.32 -21 45 C-20.34 45 -19.68 45 -19 45 C-19.33 44.34 -19.66 43.68 -20 43 Z M-26 48 C-27.63676257 49.9600281 -27.63676257 49.9600281 -29 52 C-25.87802522 50.6910428 -25.87802522 50.6910428 -24 48 C-24.66 48 -25.32 48 -26 48 Z " fill="#0883EB" transform="translate(131,28)"/>
<path d="M0 0 C2.34765625 -0.328125 2.34765625 -0.328125 5.0625 -0.25 C5.96097656 -0.23453125 6.85945313 -0.2190625 7.78515625 -0.203125 C10 0 10 0 11 1 C11.07205511 2.68608966 11.08386068 4.37500659 11.0625 6.0625 C11.05347656 6.98160156 11.04445312 7.90070313 11.03515625 8.84765625 C11.02355469 9.55792969 11.01195312 10.26820312 11 11 C9.35 11.66 7.7 12.32 6 13 C6.495 14.485 6.495 14.485 7 16 C7.81450142 22.64953617 6.78679697 28.40896736 3 34 C-1.45463137 38.27537055 -5.70666967 41.13341745 -12.01245117 41.11352539 C-12.81305466 41.11344986 -13.61365814 41.11337433 -14.43852234 41.11329651 C-15.29798965 41.10813522 -16.15745697 41.10297394 -17.04296875 41.09765625 C-17.9265657 41.0962413 -18.81016266 41.09482635 -19.72053528 41.09336853 C-22.54289128 41.08777069 -25.36516797 41.07521861 -28.1875 41.0625 C-30.10091031 41.05748472 -32.01432187 41.05292186 -33.92773438 41.04882812 C-38.61852014 41.03780197 -43.30924663 41.02053883 -48 41 C-45.25034341 39.16689561 -42.47987812 37.7574351 -39.50415039 36.33666992 C-23.3162277 28.54990972 -13.0323223 18.28513971 -5 2 C-4.01 2.33 -3.02 2.66 -2 3 C-1.34 2.01 -0.68 1.02 0 0 Z " fill="#02325D" transform="translate(137,57)"/>
<path d="M0 0 C1.23492187 -0.03738281 2.46984375 -0.07476562 3.7421875 -0.11328125 C7.125 0.3125 7.125 0.3125 9.31201172 1.87719727 C11.82167596 5.24831238 11.58184353 7.53135782 11.515625 11.703125 C11.50996521 12.40773865 11.50430542 13.11235229 11.49847412 13.83831787 C11.47615078 16.08041428 11.42596754 18.32088988 11.375 20.5625 C11.35492952 22.08591435 11.3366797 23.60935386 11.3203125 25.1328125 C11.27630118 28.8598983 11.20730372 32.58604087 11.125 36.3125 C7.44711882 37.53846039 6.34050387 37.15560077 2.125 36.3125 C2.125 32.6825 2.125 29.0525 2.125 25.3125 C0.805 25.3125 -0.515 25.3125 -1.875 25.3125 C-1.875 28.9425 -1.875 32.5725 -1.875 36.3125 C-7.5 37.4375 -7.5 37.4375 -10.875 36.3125 C-10.92452706 31.97088175 -10.96077954 27.62941425 -10.98486328 23.28759766 C-10.99490591 21.81133153 -11.00854265 20.33508521 -11.02587891 18.85888672 C-11.05020421 16.73399966 -11.0615004 14.60937615 -11.0703125 12.484375 C-11.08078613 11.2065918 -11.09125977 9.92880859 -11.10205078 8.61230469 C-10.88934847 5.52103107 -10.61415628 3.83538313 -8.875 1.3125 C-5.93776222 -0.15611889 -3.26907643 0.06456596 0 0 Z M-1.875 6.3125 C-1.875 10.2725 -1.875 14.2325 -1.875 18.3125 C-0.555 18.3125 0.765 18.3125 2.125 18.3125 C2.125 14.3525 2.125 10.3925 2.125 6.3125 C0.805 6.3125 -0.515 6.3125 -1.875 6.3125 Z " fill="#0283F0" transform="translate(271.875,46.6875)"/>
<path d="M0 0 C2.73083902 -0.13548815 5.45491807 -0.23429855 8.1875 -0.3125 C8.95642578 -0.35439453 9.72535156 -0.39628906 10.51757812 -0.43945312 C14.69221235 -0.52903755 16.50448776 -0.34999767 20.01367188 2.12866211 C22.34036076 5.49200871 22.62038387 7.19859677 22.59375 11.25390625 C22.59117187 12.43791016 22.58859375 13.62191406 22.5859375 14.84179688 C22.54339844 16.68354492 22.54339844 16.68354492 22.5 18.5625 C22.50386719 20.41004883 22.50386719 20.41004883 22.5078125 22.29492188 C22.39744831 32.42083626 22.39744831 32.42083626 19 36 C15.48185834 37.5021279 11.5812693 37.13281092 7.8125 37.125 C5.93498047 37.12886719 5.93498047 37.12886719 4.01953125 37.1328125 C1 37 1 37 0 36 C-0.08855161 33.3337397 -0.11524673 30.69352886 -0.09765625 28.02734375 C-0.0962413 27.22970108 -0.09482635 26.43205841 -0.09336853 25.61024475 C-0.08775316 23.05262565 -0.07519812 20.49509282 -0.0625 17.9375 C-0.05748698 16.20768355 -0.05292373 14.47786574 -0.04882812 12.74804688 C-0.03777875 8.49866447 -0.02050386 4.24934688 0 0 Z M9 6 C9 13.92 9 21.84 9 30 C10.32 30 11.64 30 13 30 C13 22.08 13 14.16 13 6 C11.68 6 10.36 6 9 6 Z " fill="#1181DE" transform="translate(286,47)"/>
<path d="M0 0 C0.68126953 -0.02900391 1.36253906 -0.05800781 2.06445312 -0.08789062 C7.07884158 -0.1517369 7.07884158 -0.1517369 9.25878906 1.94067383 C10.94779848 5.01346905 10.93503815 7.18889323 10.92578125 10.6875 C10.92513672 11.91984375 10.92449219 13.1521875 10.92382812 14.421875 C10.90771484 15.70578125 10.89160156 16.9896875 10.875 18.3125 C10.87983398 20.23835938 10.87983398 20.23835938 10.88476562 22.203125 C10.82315723 32.911785 10.82315723 32.911785 8.5625 36.3125 C5.74683745 37.72033127 3.3261293 37.5201814 0.1875 37.5625 C-1.52566406 37.60117188 -1.52566406 37.60117188 -3.2734375 37.640625 C-6.71008246 37.28423219 -8.03669789 36.74743674 -10.4375 34.3125 C-12.15042329 29.17373014 -11.62210346 23.75388115 -11.625 18.375 C-11.63724609 17.18197266 -11.64949219 15.98894531 -11.66210938 14.75976562 C-11.66404297 13.61314453 -11.66597656 12.46652344 -11.66796875 11.28515625 C-11.67207764 10.23593994 -11.67618652 9.18672363 -11.68041992 8.10571289 C-11.43551813 5.28971153 -10.98079123 3.65983613 -9.4375 1.3125 C-6.41881565 -0.19684217 -3.30941602 0.04669919 0 0 Z M-2.4375 6.3125 C-2.4375 14.5625 -2.4375 22.8125 -2.4375 31.3125 C-1.1175 31.3125 0.2025 31.3125 1.5625 31.3125 C1.5625 23.0625 1.5625 14.8125 1.5625 6.3125 C0.2425 6.3125 -1.0775 6.3125 -2.4375 6.3125 Z " fill="#257FCE" transform="translate(247.4375,46.6875)"/>
<path d="M0 0 C2.64 0 5.28 0 8 0 C8 4.95 8 9.9 8 15 C9.65 15 11.3 15 13 15 C12.98839844 14.00097656 12.97679687 13.00195312 12.96484375 11.97265625 C12.95582031 10.68230469 12.94679688 9.39195313 12.9375 8.0625 C12.92589844 6.77472656 12.91429687 5.48695312 12.90234375 4.16015625 C13 1 13 1 14 0 C16.64 0 19.28 0 22 0 C22 11.88 22 23.76 22 36 C18 37 18 37 13 36 C13 31.71 13 27.42 13 23 C11.35 23 9.7 23 8 23 C8 27.29 8 31.58 8 36 C5 37 5 37 0 36 C0 24.12 0 12.24 0 0 Z " fill="#1A7FDA" transform="translate(368,47)"/>
<path d="M0 0 C0.66902344 -0.020625 1.33804687 -0.04125 2.02734375 -0.0625 C6.43273428 -0.09711996 9.37416689 0.33826447 12.75 3.25 C14.21812595 7.60273523 14.12197316 12.01008946 12.8125 16.375 C12.461875 16.99375 12.11125 17.6125 11.75 18.25 C12.08 18.58 12.41 18.91 12.75 19.25 C12.82325168 22.11267567 12.84238205 24.950719 12.8125 27.8125 C12.80798828 28.61880859 12.80347656 29.42511719 12.79882812 30.25585938 C12.78700518 32.25393756 12.76906914 34.25197783 12.75 36.25 C10.26588385 37.49205807 8.49800896 37.39092354 5.75 37.25 C4.75 36.25 4.75 36.25 4.65234375 33.08984375 C4.66394531 31.80207031 4.67554688 30.51429687 4.6875 29.1875 C4.69652344 27.89714844 4.70554687 26.60679688 4.71484375 25.27734375 C4.72644531 24.27832031 4.73804688 23.27929688 4.75 22.25 C3.43 22.25 2.11 22.25 0.75 22.25 C0.75 26.87 0.75 31.49 0.75 36.25 C-2.31890187 37.78445094 -4.95094266 36.79984289 -8.25 36.25 C-8.27465098 31.28377651 -8.29283649 26.31758834 -8.30493164 21.35131836 C-8.3099719 19.66055684 -8.31680405 17.96979971 -8.32543945 16.27905273 C-8.33751857 13.85399293 -8.34323123 11.42899056 -8.34765625 9.00390625 C-8.35281754 8.24348526 -8.35797882 7.48306427 -8.36329651 6.69960022 C-8.36349238 4.8826743 -8.31197277 3.06586873 -8.25 1.25 C-6.286987 -0.713013 -2.67160806 0.02012511 0 0 Z M0.75 6.25 C0.75 9.55 0.75 12.85 0.75 16.25 C2.07 16.25 3.39 16.25 4.75 16.25 C4.75 12.95 4.75 9.65 4.75 6.25 C3.43 6.25 2.11 6.25 0.75 6.25 Z " fill="#0482ED" transform="translate(420.25,46.75)"/>
<path d="M0 0 C2.64 0 5.28 0 8 0 C8 10.23 8 20.46 8 31 C9.32 31 10.64 31 12 31 C11.99476318 30.09644775 11.98952637 29.19289551 11.98413086 28.26196289 C11.96712314 24.92048511 11.95456667 21.57905308 11.94506836 18.23754883 C11.94002899 16.78929927 11.93319747 15.34105483 11.92456055 13.89282227 C11.91247753 11.81525412 11.90676789 9.73775303 11.90234375 7.66015625 C11.89448853 5.78275757 11.89448853 5.78275757 11.88647461 3.86743164 C12 1 12 1 13 0 C15.67058851 -0.14115161 18.32432238 -0.04247107 21 0 C21.04951788 4.4840341 21.08577526 8.96792239 21.10986328 13.45214844 C21.11990744 14.97691623 21.13354531 16.50166484 21.15087891 18.02636719 C21.17519738 20.22075138 21.18649889 22.41488042 21.1953125 24.609375 C21.20578613 25.92905273 21.21625977 27.24873047 21.22705078 28.60839844 C21.01701697 31.74580679 20.77345817 33.44914617 19 36 C16.18792765 37.40603618 13.75990534 37.24557505 10.625 37.3125 C8.91183594 37.36857422 8.91183594 37.36857422 7.1640625 37.42578125 C4 37 4 37 1.82666016 35.44897461 C-0.6329237 32.15144913 -0.50686552 29.33860674 -0.390625 25.390625 C-0.38496521 24.66381531 -0.37930542 23.93700562 -0.37347412 23.18817139 C-0.35114553 20.87476755 -0.30096048 18.5629328 -0.25 16.25 C-0.22993023 14.67840784 -0.21168029 13.10679132 -0.1953125 11.53515625 C-0.15129293 7.68950283 -0.08229375 3.84501711 0 0 Z " fill="#0183F1" transform="translate(171,47)"/>
<path d="M0 0 C1.2375 0.00128906 2.475 0.00257812 3.75 0.00390625 C7 0.4375 7 0.4375 8.89453125 1.734375 C10.65060772 4.43984971 10.70229243 7.28179971 11 10.4375 C8.03 10.4375 5.06 10.4375 2 10.4375 C2 9.4475 2 8.4575 2 7.4375 C0.68 7.4375 -0.64 7.4375 -2 7.4375 C-2 9.7475 -2 12.0575 -2 14.4375 C-0.783125 14.334375 0.43375 14.23125 1.6875 14.125 C4.9357304 14.17115603 6.04826483 14.46464896 9 16.125 C12.0813369 21.22846424 12.04280638 26.62655133 11 32.4375 C9.37109375 35.30859375 9.37109375 35.30859375 7 37.4375 C3.90625 38.06640625 3.90625 38.06640625 0.5 38 C-0.6240625 38.00128906 -1.748125 38.00257812 -2.90625 38.00390625 C-6.59562159 37.32845312 -7.82117337 36.45718447 -10 33.4375 C-10.50755847 30.65607957 -10.19028514 28.2917771 -10 25.4375 C-7.36 25.4375 -4.72 25.4375 -2 25.4375 C-2 27.0875 -2 28.7375 -2 30.4375 C-0.35 30.4375 1.3 30.4375 3 30.4375 C3 27.7975 3 25.1575 3 22.4375 C2.39671875 22.48390625 1.7934375 22.5303125 1.171875 22.578125 C-0.02695312 22.63226563 -0.02695312 22.63226563 -1.25 22.6875 C-2.03890625 22.73390625 -2.8278125 22.7803125 -3.640625 22.828125 C-6 22.4375 -6 22.4375 -8.26953125 20.859375 C-10.59957802 17.59836147 -10.5006771 15.41344522 -10.4375 11.4375 C-10.43621094 10.220625 -10.43492187 9.00375 -10.43359375 7.75 C-9.51192186 0.70875893 -6.79005482 -0.10609461 0 0 Z " fill="#1082E7" transform="translate(331,46.5625)"/>
<path d="M0 0 C2.58361518 -0.05407567 5.16609255 -0.093707 7.75 -0.125 C8.84441406 -0.15013672 8.84441406 -0.15013672 9.9609375 -0.17578125 C16.93544865 -0.2391859 16.93544865 -0.2391859 20 2 C22.81842969 7.23422656 22.32421585 13.33875507 21 19 C19.42248259 20.95785038 18.24624085 21.87687957 16 23 C13.6670134 23.04022391 11.33293334 23.04320247 9 23 C9.01160156 23.92683594 9.02320313 24.85367188 9.03515625 25.80859375 C9.04417969 27.00613281 9.05320313 28.20367187 9.0625 29.4375 C9.07410156 30.63246094 9.08570313 31.82742187 9.09765625 33.05859375 C9 36 9 36 8 37 C4.5 37.125 4.5 37.125 1 37 C0 36 0 36 -0.11352539 32.58178711 C-0.11336628 31.06363012 -0.10767226 29.54546771 -0.09765625 28.02734375 C-0.0962413 27.22970108 -0.09482635 26.43205841 -0.09336853 25.61024475 C-0.08775316 23.05262565 -0.07519812 20.49509282 -0.0625 17.9375 C-0.05748698 16.20768355 -0.05292373 14.47786574 -0.04882812 12.74804688 C-0.03777875 8.49866447 -0.02050386 4.24934688 0 0 Z M9 6 C9 9.3 9 12.6 9 16 C10.32 16 11.64 16 13 16 C13 12.7 13 9.4 13 6 C11.68 6 10.36 6 9 6 Z " fill="#0483ED" transform="translate(195,47)"/>
<path d="M0 0 C16 0 16 0 20 2 C21.50929383 5.01858766 21.22510073 8.12900954 21.25 11.4375 C21.270625 12.11876953 21.29125 12.80003906 21.3125 13.50195312 C21.35161725 18.49429167 21.35161725 18.49429167 19.671875 20.91015625 C15.89636941 23.37129191 12.36268508 23.08231481 8 23 C8 27.29 8 31.58 8 36 C4 37 4 37 0 36 C0 24.12 0 12.24 0 0 Z M8 6 C8 9.3 8 12.6 8 16 C9.65 16 11.3 16 13 16 C13 13.03 13 10.06 13 7 C11.35 6.67 9.7 6.34 8 6 Z " fill="#0881E9" transform="translate(345,47)"/>
<path d="M0 0 C5.61 0 11.22 0 17 0 C17 2.31 17 4.62 17 7 C14.36 7 11.72 7 9 7 C9 9.64 9 12.28 9 15 C10.7015625 14.9690625 10.7015625 14.9690625 12.4375 14.9375 C16 15 16 15 17 16 C17.125 18.5 17.125 18.5 17 21 C16 22 16 22 12.4375 22.0625 C11.303125 22.041875 10.16875 22.02125 9 22 C9 24.31 9 26.62 9 29 C11.64 29 14.28 29 17 29 C17 31.31 17 33.62 17 36 C13.60607349 37.13130884 10.94665128 37.1329194 7.375 37.125 C6.20710938 37.12757812 5.03921875 37.13015625 3.8359375 37.1328125 C1 37 1 37 0 36 C-0.08855161 33.3337397 -0.11524673 30.69352886 -0.09765625 28.02734375 C-0.0962413 27.22970108 -0.09482635 26.43205841 -0.09336853 25.61024475 C-0.08775316 23.05262565 -0.07519812 20.49509282 -0.0625 17.9375 C-0.05748698 16.20768355 -0.05292373 14.47786574 -0.04882812 12.74804688 C-0.03862791 8.49863761 -0.01905568 4.24941584 0 0 Z " fill="#0C82E6" transform="translate(393,47)"/>
<path d="M0 0 C1.48831242 0.00667405 2.97660807 0.01863442 4.46484375 0.03515625 C5.22345703 0.03966797 5.98207031 0.04417969 6.76367188 0.04882812 C8.64326246 0.06064945 10.52281274 0.07858547 12.40234375 0.09765625 C12.40234375 2.40765625 12.40234375 4.71765625 12.40234375 7.09765625 C9.76234375 7.09765625 7.12234375 7.09765625 4.40234375 7.09765625 C4.40234375 9.73765625 4.40234375 12.37765625 4.40234375 15.09765625 C7.04234375 15.09765625 9.68234375 15.09765625 12.40234375 15.09765625 C12.44488731 17.09720371 12.44315158 19.09807261 12.40234375 21.09765625 C11.40234375 22.09765625 11.40234375 22.09765625 7.83984375 22.16015625 C6.70546875 22.13953125 5.57109375 22.11890625 4.40234375 22.09765625 C4.40234375 24.40765625 4.40234375 26.71765625 4.40234375 29.09765625 C7.04234375 29.09765625 9.68234375 29.09765625 12.40234375 29.09765625 C12.40234375 31.40765625 12.40234375 33.71765625 12.40234375 36.09765625 C8.71833791 37.3286978 5.48759399 37.00532877 1.65234375 36.66015625 C0.481875 36.55832031 -0.68859375 36.45648438 -1.89453125 36.3515625 C-2.7865625 36.26777344 -3.67859375 36.18398437 -4.59765625 36.09765625 C-4.62230723 31.13143276 -4.64049274 26.16524459 -4.65258789 21.19897461 C-4.65762815 19.50821309 -4.6644603 17.81745596 -4.6730957 16.12670898 C-4.68517482 13.70164918 -4.69088748 11.27664681 -4.6953125 8.8515625 C-4.70047379 8.09114151 -4.70563507 7.33072052 -4.71095276 6.54725647 C-4.71114863 4.73033055 -4.65962902 2.91352498 -4.59765625 1.09765625 C-3.59765625 0.09765625 -3.59765625 0.09765625 0 0 Z " fill="#1384E1" transform="translate(440.59765625,46.90234375)"/>
<path d="M0 0 C3.96 0 7.92 0 12 0 C12.66 1.32 13.32 2.64 14 4 C16.05000871 4.80528889 16.05000871 4.80528889 18 5 C18 6.32 18 7.64 18 9 C19.04800781 9.05607422 19.04800781 9.05607422 20.1171875 9.11328125 C21.48230469 9.21189453 21.48230469 9.21189453 22.875 9.3125 C23.77992187 9.37050781 24.68484375 9.42851563 25.6171875 9.48828125 C28 10 28 10 30 13 C29.625 15.1875 29.625 15.1875 29 17 C28.34 15.35 27.68 13.7 27 12 C24.58354218 11.83312552 24.58354218 11.83312552 22 12 C21.34 12.66 20.68 13.32 20 14 C17.86129761 14.2784729 17.86129761 14.2784729 15.18310547 14.31884766 C14.18221893 14.33871735 13.1813324 14.35858704 12.15011597 14.37905884 C10.52506638 14.39638565 10.52506638 14.39638565 8.8671875 14.4140625 C7.20672897 14.44311172 7.20672897 14.44311172 5.51272583 14.4727478 C1.96689631 14.53266754 -1.57896545 14.57897873 -5.125 14.625 C-7.52475397 14.66316835 -9.92449408 14.70221939 -12.32421875 14.7421875 C-18.21602302 14.83837916 -24.10791036 14.92339015 -30 15 C-29.67 14.34 -29.34 13.68 -29 13 C-27.21484375 12.796875 -27.21484375 12.796875 -24.9375 12.75 C-20.03615686 12.33766478 -17.55925031 10.50772794 -13.84375 7.43359375 C-9.91611543 4.37969145 -5.86077669 3.71407196 -1 4 C-0.67 2.68 -0.34 1.36 0 0 Z " fill="#0283F1" transform="translate(72,49)"/>
<path d="M0 0 C6.15234375 -0.09765625 6.15234375 -0.09765625 8 0 C9 1 9 1 9.11352539 3.68383789 C9.10828857 4.85164795 9.10305176 6.01945801 9.09765625 7.22265625 C9.09443359 8.48271484 9.09121094 9.74277344 9.08789062 11.04101562 C9.07953403 12.38151109 9.07106907 13.72200588 9.0625 15.0625 C9.0574866 16.40689942 9.05292342 17.7513006 9.04882812 19.09570312 C9.03699488 22.39717941 9.02050971 25.69856803 9 29 C11.64 29 14.28 29 17 29 C17 31.31 17 33.62 17 36 C13.60607349 37.13130884 10.94665128 37.1329194 7.375 37.125 C6.20710937 37.12757812 5.03921875 37.13015625 3.8359375 37.1328125 C1 37 1 37 0 36 C-0.08855161 33.3337397 -0.11524673 30.69352886 -0.09765625 28.02734375 C-0.0962413 27.22970108 -0.09482635 26.43205841 -0.09336853 25.61024475 C-0.08775316 23.05262565 -0.07519812 20.49509282 -0.0625 17.9375 C-0.05748698 16.20768355 -0.05292373 14.47786574 -0.04882812 12.74804688 C-0.03777875 8.49866447 -0.02050386 4.24934688 0 0 Z " fill="#1684DE" transform="translate(218,47)"/>
<path d="M0 0 C4.63244564 3.47919344 8.77821423 7.16732134 12 12 C11.625 15.6875 11.625 15.6875 11 19 C10.67 19 10.34 19 10 19 C9.505 16.03 9.505 16.03 9 13 C8.34 13 7.68 13 7 13 C6.505 10.525 6.505 10.525 6 8 C4.865625 7.87625 3.73125 7.7525 2.5625 7.625 C1.386875 7.41875 0.21125 7.2125 -1 7 C-1.495 6.01 -1.495 6.01 -2 5 C-4.02463255 4.34786708 -4.02463255 4.34786708 -6 4 C-5.67 3.01 -5.34 2.02 -5 1 C-6.43739513 0.97287934 -7.87493863 0.95354933 -9.3125 0.9375 C-10.11300781 0.92589844 -10.91351563 0.91429687 -11.73828125 0.90234375 C-14.16861334 0.90342145 -14.16861334 0.90342145 -17 2 C-16.45276317 5.37462715 -15.9451 7.08235 -14 10 C-15.32 10.33 -16.64 10.66 -18 11 C-18 12.65 -18 14.3 -18 16 C-18.99 16 -19.98 16 -21 16 C-20.67 15.67 -20.34 15.34 -20 15 C-19.95936168 13.33382885 -19.957279 11.66611905 -20 10 C-22.97 9.505 -22.97 9.505 -26 9 C-26 9.66 -26 10.32 -26 11 C-33.26 11 -40.52 11 -48 11 C-48 10.67 -48 10.34 -48 10 C-47.39414062 10.020625 -46.78828125 10.04125 -46.1640625 10.0625 C-39.05363451 9.88747408 -35.83174699 7.6127682 -30.578125 3.01171875 C-21.54376618 -4.03781882 -10.22807889 -4.86401974 0 0 Z " fill="#0883E9" transform="translate(111,35)"/>
<path d="M0 0 C2.64 0 5.28 0 8 0 C8 10.23 8 20.46 8 31 C9.32 31 10.64 31 12 31 C11.99476318 30.09644775 11.98952637 29.19289551 11.98413086 28.26196289 C11.96712314 24.92048511 11.95456667 21.57905308 11.94506836 18.23754883 C11.94002899 16.78929927 11.93319747 15.34105483 11.92456055 13.89282227 C11.91247753 11.81525412 11.90676789 9.73775303 11.90234375 7.66015625 C11.89448853 5.78275757 11.89448853 5.78275757 11.88647461 3.86743164 C12 1 12 1 13 0 C15.67058851 -0.14115161 18.32432238 -0.04247107 21 0 C21.04951788 4.4840341 21.08577526 8.96792239 21.10986328 13.45214844 C21.11990744 14.97691623 21.13354531 16.50166484 21.15087891 18.02636719 C21.17519738 20.22075138 21.18649889 22.41488042 21.1953125 24.609375 C21.20578613 25.92905273 21.21625977 27.24873047 21.22705078 28.60839844 C21.01701697 31.74580679 20.77345817 33.44914617 19 36 C16.18792765 37.40603618 13.75990534 37.24557505 10.625 37.3125 C8.91183594 37.36857422 8.91183594 37.36857422 7.1640625 37.42578125 C4 37 4 37 1.82666016 35.44897461 C-0.6329237 32.15144913 -0.50686552 29.33860674 -0.390625 25.390625 C-0.38496521 24.66381531 -0.37930542 23.93700562 -0.37347412 23.18817139 C-0.35114553 20.87476755 -0.30096048 18.5629328 -0.25 16.25 C-0.22993023 14.67840784 -0.21168029 13.10679132 -0.1953125 11.53515625 C-0.15129293 7.68950283 -0.08229375 3.84501711 0 0 Z M2 2 C1.950623 6.52065428 1.91429177 11.04115217 1.89013672 15.56201172 C1.88006882 17.10045098 1.86641354 18.63887107 1.84912109 20.17724609 C1.82490683 22.38644133 1.81352509 24.59538395 1.8046875 26.8046875 C1.79436493 27.49432587 1.78404236 28.18396423 1.77340698 28.89450073 C1.77300522 30.59800906 1.87808974 32.30085943 2 34 C3.77163007 36.18665836 3.77163007 36.18665836 6.0234375 36.23046875 C6.79945313 36.21628906 7.57546875 36.20210937 8.375 36.1875 C9.53128906 36.17783203 9.53128906 36.17783203 10.7109375 36.16796875 C12.96042796 36.00290375 14.87549602 35.76240405 17 35 C21.71940654 25.31279711 20.10965039 12.50207053 20 2 C18.02 2 16.04 2 14 2 C13.67 11.9 13.34 21.8 13 32 C10.69 31.67 8.38 31.34 6 31 C6 21.43 6 11.86 6 2 C4.68 2 3.36 2 2 2 Z " fill="#237ED1" transform="translate(171,47)"/>
<path d="M0 0 C1.23492187 -0.03738281 2.46984375 -0.07476562 3.7421875 -0.11328125 C7.125 0.3125 7.125 0.3125 9.31201172 1.87719727 C11.82167596 5.24831238 11.58184353 7.53135782 11.515625 11.703125 C11.50996521 12.40773865 11.50430542 13.11235229 11.49847412 13.83831787 C11.47615078 16.08041428 11.42596754 18.32088988 11.375 20.5625 C11.35492952 22.08591435 11.3366797 23.60935386 11.3203125 25.1328125 C11.27630118 28.8598983 11.20730372 32.58604087 11.125 36.3125 C7.44711882 37.53846039 6.34050387 37.15560077 2.125 36.3125 C2.125 32.6825 2.125 29.0525 2.125 25.3125 C0.805 25.3125 -0.515 25.3125 -1.875 25.3125 C-1.875 28.9425 -1.875 32.5725 -1.875 36.3125 C-2.865 36.8075 -2.865 36.8075 -3.875 37.3125 C-3.76090318 35.20771396 -3.63334639 33.10365423 -3.5 31 C-3.43039062 29.82824219 -3.36078125 28.65648437 -3.2890625 27.44921875 C-2.875 24.3125 -2.875 24.3125 -0.875 21.3125 C-1.535 20.3225 -2.195 19.3325 -2.875 18.3125 C-3.0703125 15.17578125 -3.0703125 15.17578125 -3 11.625 C-2.98195313 10.44550781 -2.96390625 9.26601563 -2.9453125 8.05078125 C-2.92210937 7.14714844 -2.89890625 6.24351563 -2.875 5.3125 C-0.895 5.3125 1.085 5.3125 3.125 5.3125 C4.17476964 8.46180893 4.22631595 10.70064456 4.1875 14 C4.17847656 14.99386719 4.16945313 15.98773438 4.16015625 17.01171875 C4.14855469 17.77097656 4.13695312 18.53023437 4.125 19.3125 C4.785 19.3125 5.445 19.3125 6.125 19.3125 C6.455 21.2925 6.785 23.2725 7.125 25.3125 C6.795 24.6525 6.465 23.9925 6.125 23.3125 C5.465 23.6425 4.805 23.9725 4.125 24.3125 C3.6566735 26.89855332 3.6566735 26.89855332 3.5 29.875 C3.42523438 30.88691406 3.35046875 31.89882812 3.2734375 32.94140625 C3.22445313 33.72386719 3.17546875 34.50632813 3.125 35.3125 C5.105 35.3125 7.085 35.3125 9.125 35.3125 C9.18313173 30.75005363 9.21864122 26.18770276 9.25 21.625 C9.26675781 20.33142578 9.28351563 19.03785156 9.30078125 17.70507812 C9.30722656 16.45791016 9.31367188 15.21074219 9.3203125 13.92578125 C9.33078613 12.77891846 9.34125977 11.63205566 9.35205078 10.45043945 C9.12558489 7.32058345 8.45956032 5.13170095 7.125 2.3125 C1.83018291 2.21960847 -2.51710878 2.54708697 -7.875 3.3125 C-8.205 14.5325 -8.535 25.7525 -8.875 37.3125 C-9.535 36.9825 -10.195 36.6525 -10.875 36.3125 C-10.92452706 31.97088175 -10.96077954 27.62941425 -10.98486328 23.28759766 C-10.99490591 21.81133153 -11.00854265 20.33508521 -11.02587891 18.85888672 C-11.05020421 16.73399966 -11.0615004 14.60937615 -11.0703125 12.484375 C-11.08078613 11.2065918 -11.09125977 9.92880859 -11.10205078 8.61230469 C-10.88934847 5.52103107 -10.61415628 3.83538313 -8.875 1.3125 C-5.93776222 -0.15611889 -3.26907643 0.06456596 0 0 Z M-1.875 6.3125 C-1.875 10.2725 -1.875 14.2325 -1.875 18.3125 C-0.555 18.3125 0.765 18.3125 2.125 18.3125 C2.125 14.3525 2.125 10.3925 2.125 6.3125 C0.805 6.3125 -0.515 6.3125 -1.875 6.3125 Z M6.125 18.3125 C8.125 19.3125 8.125 19.3125 8.125 19.3125 Z " fill="#1480DB" transform="translate(271.875,46.6875)"/>
<path d="M0 0 C1.98 0 3.96 0 6 0 C6 11.55 6 23.1 6 35 C3.69 35 1.38 35 -1 35 C-3.05922402 32.94077598 -2.41427579 28.78291876 -2.5625 25.9375 C-2.60568359 25.17888672 -2.64886719 24.42027344 -2.69335938 23.63867188 C-2.79973633 21.75934562 -2.90039934 19.87969756 -3 18 C-3.99 17.67 -4.98 17.34 -6 17 C-5.67 16.34 -5.34 15.68 -5 15 C-3.68 15 -2.36 15 -1 15 C-0.67 10.05 -0.34 5.1 0 0 Z " fill="#0682EB" transform="translate(383,49)"/>
<path d="M0 0 C0.33 1.98 0.66 3.96 1 6 C1.33 6 1.66 6 2 6 C2.05797565 9.93743833 2.09358789 13.87476719 2.125 17.8125 C2.14175781 18.93205078 2.15851563 20.05160156 2.17578125 21.20507812 C2.18222656 22.27822266 2.18867188 23.35136719 2.1953125 24.45703125 C2.20578613 25.44678955 2.21625977 26.43654785 2.22705078 27.45629883 C2 30 2 30 0 33 C-2.82716095 33.94238698 -4.63176123 34.13465647 -7.5625 34.125 C-8.74005859 34.12886719 -8.74005859 34.12886719 -9.94140625 34.1328125 C-12 34 -12 34 -14 33 C-13.67 32.01 -13.34 31.02 -13 30 C-9.535 29.505 -9.535 29.505 -6 29 C-6 19.76 -6 10.52 -6 1 C-4 0 -4 0 0 0 Z " fill="#0483EE" transform="translate(255,49)"/>
<path d="M0 0 C4.29 0 8.58 0 13 0 C15.25 6.75 15.25 6.75 14 11 C13.67 11 13.34 11 13 11 C13 9.02 13 7.04 13 5 C10.69 4.67 8.38 4.34 6 4 C5.97494385 4.68102783 5.9498877 5.36205566 5.92407227 6.0637207 C5.80809048 9.14683755 5.68537384 12.22965046 5.5625 15.3125 C5.52318359 16.38435547 5.48386719 17.45621094 5.44335938 18.56054688 C5.40146484 19.58857422 5.35957031 20.61660156 5.31640625 21.67578125 C5.27974854 22.62364502 5.24309082 23.57150879 5.20532227 24.5480957 C5 27 5 27 4 30 C5.98 30 7.96 30 10 30 C10 31.66666667 10 33.33333333 10 35 C5.8956496 35.24143238 2.85462635 34.35605968 -1 33 C-1.02927632 29.47918442 -1.04689119 25.95840061 -1.0625 22.4375 C-1.07087891 21.44685547 -1.07925781 20.45621094 -1.08789062 19.43554688 C-1.10536914 14.17451301 -0.92308398 9.18235335 0 4 C0.66 4 1.32 4 2 4 C1.34 2.68 0.68 1.36 0 0 Z " fill="#0283F1" transform="translate(288,49)"/>
<path d="M0 0 C16 0 16 0 20 2 C21.53266582 5.06533164 21.10276471 8.26754272 21.0625 11.625 C21.05798828 12.33140625 21.05347656 13.0378125 21.04882812 13.765625 C21.03703875 15.51045275 21.01910324 17.255237 21 19 C20.34 19.33 19.68 19.66 19 20 C18.67 16.04 18.34 12.08 18 8 C17.34 8 16.68 8 16 8 C15.67 10.97 15.34 13.94 15 17 C12.03 17 9.06 17 6 17 C6 12.71 6 8.42 6 4 C8.31 4 10.62 4 13 4 C13 3.34 13 2.68 13 2 C9.37 2 5.74 2 2 2 C2 13.55 2 25.1 2 37 C1.34 36.67 0.68 36.34 0 36 C0 24.12 0 12.24 0 0 Z M8 6 C8 9.3 8 12.6 8 16 C9.65 16 11.3 16 13 16 C13 13.03 13 10.06 13 7 C11.35 6.67 9.7 6.34 8 6 Z " fill="#1F7ED8" transform="translate(345,47)"/>
<path d="M0 0 C2.31 0 4.62 0 7 0 C7.66 0.99 8.32 1.98 9 3 C8.34 3.66 7.68 4.32 7 5 C6.53993654 7.20250992 6.53993654 7.20250992 6.375 9.625 C6.25125 11.06875 6.1275 12.5125 6 14 C8.97 14 11.94 14 15 14 C15 15.65 15 17.3 15 19 C11.04 19.495 11.04 19.495 7 20 C6.34 22.31 5.68 24.62 5 27 C2.525 26.01 2.525 26.01 0 25 C0 16.75 0 8.5 0 0 Z " fill="#0383EF" transform="translate(437,49)"/>
<path d="M0 0 C5.75 -0.125 5.75 -0.125 8 1 C8 10.24 8 19.48 8 29 C9.32 29 10.64 29 12 29 C12 23.72 12 18.44 12 13 C12.66 13.33 13.32 13.66 14 14 C14 19.61 14 25.22 14 31 C11.51588385 32.24205807 9.74800896 32.14092354 7 32 C6 31 6 31 5.90234375 27.83984375 C5.91394531 26.55207031 5.92554688 25.26429687 5.9375 23.9375 C5.94652344 22.64714844 5.95554687 21.35679688 5.96484375 20.02734375 C5.97644531 19.02832031 5.98804688 18.02929688 6 17 C4.68 17 3.36 17 2 17 C2 21.62 2 26.24 2 31 C1.67 31 1.34 31 1 31 C0.97308315 28.54159395 0.95320198 26.08348118 0.9375 23.625 C0.92912109 22.92632812 0.92074219 22.22765625 0.91210938 21.5078125 C0.88671875 16.2265625 0.88671875 16.2265625 2 14 C1.01 14.33 0.02 14.66 -1 15 C-1.66 14.34 -2.32 13.68 -3 13 C-2.34 12.34 -1.68 11.68 -1 11 C-0.53709779 8.33757179 -0.53709779 8.33757179 -0.375 5.375 C-0.30023438 4.37210938 -0.22546875 3.36921875 -0.1484375 2.3359375 C-0.09945313 1.56507812 -0.05046875 0.79421875 0 0 Z M2 1 C2 4.3 2 7.6 2 11 C3.32 11 4.64 11 6 11 C6 7.7 6 4.4 6 1 C4.68 1 3.36 1 2 1 Z " fill="#287CCF" transform="translate(419,52)"/>
<path d="M0 0 C2.64 0 5.28 0 8 0 C7.2733313 0.80872559 7.2733313 0.80872559 6.53198242 1.63378906 C4.63893317 4.55768283 4.57664538 6.39550128 4.48828125 9.859375 C4.45283203 10.97441406 4.41738281 12.08945312 4.38085938 13.23828125 C4.34702148 14.97658203 4.34702148 14.97658203 4.3125 16.75 C4.27833984 17.92433594 4.24417969 19.09867188 4.20898438 20.30859375 C4.12654827 23.20563389 4.05738189 26.10237298 4 29 C3.01 29 2.02 29 1 29 C0.67 29.66 0.34 30.32 0 31 C-1.59339602 27.47182247 -2.25560417 24.70466371 -2.265625 20.83984375 C-2.26820313 19.88142578 -2.27078125 18.92300781 -2.2734375 17.93554688 C-2.26183594 16.45151367 -2.26183594 16.45151367 -2.25 14.9375 C-2.25773438 13.94427734 -2.26546875 12.95105469 -2.2734375 11.92773438 C-2.27085937 10.97060547 -2.26828125 10.01347656 -2.265625 9.02734375 C-2.26336914 8.15843506 -2.26111328 7.28952637 -2.25878906 6.39428711 C-1.98312702 3.84389312 -1.2840262 2.20114222 0 0 Z " fill="#0283F0" transform="translate(239,49)"/>
<path d="M0 0 C2.60444348 -0.05394705 5.20776998 -0.09364469 7.8125 -0.125 C8.55048828 -0.14175781 9.28847656 -0.15851562 10.04882812 -0.17578125 C13.91246426 -0.21074628 15.70903668 -0.19397555 19 2 C15.7 2 12.4 2 9 2 C9 2.66 9 3.32 9 4 C10.32 4 11.64 4 13 4 C13 4.66 13 5.32 13 6 C11.68 6 10.36 6 9 6 C9 9.3 9 12.6 9 16 C10.32 16 11.64 16 13 16 C13 13.03 13 10.06 13 7 C13.33 7 13.66 7 14 7 C14.33 10.63 14.66 14.26 15 18 C12.69 18 10.38 18 8 18 C6.85922343 14.57767028 6.90184883 11.91326783 6.9375 8.3125 C6.94652344 7.13300781 6.95554688 5.95351563 6.96484375 4.73828125 C6.97644531 3.83464844 6.98804688 2.93101563 7 2 C5.35 2 3.7 2 2 2 C2 13.22 2 24.44 2 36 C3.98 36 5.96 36 8 36 C8 36.33 8 36.66 8 37 C5.66705225 37.04241723 3.33297433 37.04092937 1 37 C0 36 0 36 -0.11352539 32.58178711 C-0.11336628 31.06363012 -0.10767226 29.54546771 -0.09765625 28.02734375 C-0.0962413 27.22970108 -0.09482635 26.43205841 -0.09336853 25.61024475 C-0.08775316 23.05262565 -0.07519812 20.49509282 -0.0625 17.9375 C-0.05748698 16.20768355 -0.05292373 14.47786574 -0.04882812 12.74804688 C-0.03777875 8.49866447 -0.02050386 4.24934688 0 0 Z " fill="#217FCF" transform="translate(195,47)"/>
<path d="M0 0 C1.28132813 0.00902344 2.56265625 0.01804688 3.8828125 0.02734375 C4.87023437 0.03894531 5.85765625 0.05054688 6.875 0.0625 C6.545 1.7125 6.215 3.3625 5.875 5.0625 C4.885 4.7325 3.895 4.4025 2.875 4.0625 C0.80881251 4.15518505 0.80881251 4.15518505 -1.3125 4.5 C-2.570625 4.685625 -3.82875 4.87125 -5.125 5.0625 C-5.08124299 9.1679876 -5.08124299 9.1679876 -4.125 13.0625 C-0.76318694 15.03913914 -0.76318694 15.03913914 2.875 16.0625 C3.535 16.7225 4.195 17.3825 4.875 18.0625 C2.72923363 18.08935938 0.58337355 18.10883088 -1.5625 18.125 C-2.75746094 18.13660156 -3.95242188 18.14820312 -5.18359375 18.16015625 C-8.125 18.0625 -8.125 18.0625 -9.125 17.0625 C-9.19819621 14.36595146 -9.21742537 11.69558542 -9.1875 9 C-9.18298828 8.24138672 -9.17847656 7.48277344 -9.17382812 6.70117188 C-9.1620068 4.82158129 -9.14407078 2.94203101 -9.125 1.0625 C-6.12186252 -0.43906874 -3.33432478 -0.03031204 0 0 Z " fill="#0383F0" transform="translate(332.125,48.9375)"/>
<path d="M0 0 C3.63 0 7.26 0 11 0 C13.54637173 5.54210317 13.37030042 11.1417358 12 17 C10.42248259 18.95785038 9.24624085 19.87687957 7 21 C4.6670134 21.04022391 2.33293334 21.04320247 0 21 C0 20.67 0 20.34 0 20 C2.31 19.34 4.62 18.68 7 18 C6.690625 17.030625 6.38125 16.06125 6.0625 15.0625 C4.82032903 10.76335509 4.38315147 6.44657366 4 2 C2.68 2 1.36 2 0 2 C0 1.34 0 0.68 0 0 Z " fill="#0C81E4" transform="translate(204,49)"/>
<path d="M0 0 C1.48831242 0.00667405 2.97660807 0.01863442 4.46484375 0.03515625 C5.22345703 0.03966797 5.98207031 0.04417969 6.76367188 0.04882812 C8.64326246 0.06064945 10.52281274 0.07858547 12.40234375 0.09765625 C12.40234375 2.40765625 12.40234375 4.71765625 12.40234375 7.09765625 C9.76234375 7.09765625 7.12234375 7.09765625 4.40234375 7.09765625 C4.40234375 9.73765625 4.40234375 12.37765625 4.40234375 15.09765625 C7.04234375 15.09765625 9.68234375 15.09765625 12.40234375 15.09765625 C12.40234375 17.07765625 12.40234375 19.05765625 12.40234375 21.09765625 C12.07234375 21.09765625 11.74234375 21.09765625 11.40234375 21.09765625 C11.40234375 19.44765625 11.40234375 17.79765625 11.40234375 16.09765625 C8.43234375 16.09765625 5.46234375 16.09765625 2.40234375 16.09765625 C2.15234375 7.47265625 2.15234375 7.47265625 4.40234375 4.09765625 C2.80234375 2.29765625 2.80234375 2.29765625 -3.59765625 2.09765625 C-3.59765625 12.98765625 -3.59765625 23.87765625 -3.59765625 35.09765625 C-1.94765625 35.09765625 -0.29765625 35.09765625 1.40234375 35.09765625 C1.40234375 35.42765625 1.40234375 35.75765625 1.40234375 36.09765625 C-0.57765625 36.09765625 -2.55765625 36.09765625 -4.59765625 36.09765625 C-4.62230723 31.13143276 -4.64049274 26.16524459 -4.65258789 21.19897461 C-4.65762815 19.50821309 -4.6644603 17.81745596 -4.6730957 16.12670898 C-4.68517482 13.70164918 -4.69088748 11.27664681 -4.6953125 8.8515625 C-4.70047379 8.09114151 -4.70563507 7.33072052 -4.71095276 6.54725647 C-4.71114863 4.73033055 -4.65962902 2.91352498 -4.59765625 1.09765625 C-3.59765625 0.09765625 -3.59765625 0.09765625 0 0 Z " fill="#2180D5" transform="translate(440.59765625,46.90234375)"/>
<path d="M0 0 C0.9075 0.00257812 1.815 0.00515625 2.75 0.0078125 C4.11125 0.00394531 4.11125 0.00394531 5.5 0 C7.75 0.1328125 7.75 0.1328125 8.75 1.1328125 C8.84823937 2.79710301 8.87973631 4.46563181 8.875 6.1328125 C8.87757813 7.0403125 8.88015625 7.9478125 8.8828125 8.8828125 C8.75 11.1328125 8.75 11.1328125 7.75 12.1328125 C6.10769636 12.2573611 4.45947724 12.30849774 2.8125 12.3203125 C1.91660156 12.33449219 1.02070313 12.34867188 0.09765625 12.36328125 C-2.25 12.1328125 -2.25 12.1328125 -4.25 10.1328125 C-4.26171875 8.00390625 -4.26171875 8.00390625 -3.9375 5.5703125 C-3.83824219 4.76464844 -3.73898438 3.95898438 -3.63671875 3.12890625 C-3.09186396 0.31657496 -2.89184138 0.17069897 0 0 Z " fill="#117EDC" transform="translate(139.25,56.8671875)"/>
<path d="M0 0 C1.23492187 -0.03738281 2.46984375 -0.07476562 3.7421875 -0.11328125 C7.125 0.3125 7.125 0.3125 9.31201172 1.87719727 C11.82167596 5.24831238 11.58184353 7.53135782 11.515625 11.703125 C11.50996521 12.40773865 11.50430542 13.11235229 11.49847412 13.83831787 C11.47615078 16.08041428 11.42596754 18.32088988 11.375 20.5625 C11.35492952 22.08591435 11.3366797 23.60935386 11.3203125 25.1328125 C11.27630118 28.8598983 11.20730372 32.58604087 11.125 36.3125 C10.795 36.3125 10.465 36.3125 10.125 36.3125 C10.10518066 35.46018799 10.08536133 34.60787598 10.06494141 33.72973633 C9.98660496 30.55191676 9.89990335 27.37446418 9.80761719 24.19702148 C9.76945712 22.82471419 9.73458204 21.45231129 9.703125 20.07983398 C9.65719318 18.1011771 9.59826363 16.12283558 9.5390625 14.14453125 C9.49193115 12.36139526 9.49193115 12.36139526 9.44384766 10.54223633 C9.1350289 7.41408672 8.4543088 5.14136241 7.125 2.3125 C1.83018291 2.21960847 -2.51710878 2.54708697 -7.875 3.3125 C-8.205 14.5325 -8.535 25.7525 -8.875 37.3125 C-9.535 36.9825 -10.195 36.6525 -10.875 36.3125 C-10.92452706 31.97088175 -10.96077954 27.62941425 -10.98486328 23.28759766 C-10.99490591 21.81133153 -11.00854265 20.33508521 -11.02587891 18.85888672 C-11.05020421 16.73399966 -11.0615004 14.60937615 -11.0703125 12.484375 C-11.08078613 11.2065918 -11.09125977 9.92880859 -11.10205078 8.61230469 C-10.88934847 5.52103107 -10.61415628 3.83538313 -8.875 1.3125 C-5.93776222 -0.15611889 -3.26907643 0.06456596 0 0 Z " fill="#267ECA" transform="translate(271.875,46.6875)"/>
<path d="M0 0 C1.98 0 3.96 0 6 0 C6 7.59 6 15.18 6 23 C5.67 22.34 5.34 21.68 5 21 C3.68 21 2.36 21 1 21 C1.33 22.32 1.66 23.64 2 25 C1.34 25.33 0.68 25.66 0 26 C0 17.42 0 8.84 0 0 Z " fill="#0383F0" transform="translate(219,49)"/>
<path d="M0 0 C1 3 1 3 -0.5 6.375 C-3.45309651 11.23166046 -7.65208143 14.21736048 -13 16 C-14.33528807 16.08544291 -15.67443888 16.11774625 -17.01245117 16.11352539 C-17.81305466 16.11344986 -18.61365814 16.11337433 -19.43852234 16.11329651 C-20.29798965 16.10813522 -21.15745697 16.10297394 -22.04296875 16.09765625 C-22.9265657 16.0962413 -23.81016266 16.09482635 -24.72053528 16.09336853 C-27.54289128 16.08777069 -30.36516797 16.07521861 -33.1875 16.0625 C-35.10091031 16.05748472 -37.01432187 16.05292186 -38.92773438 16.04882812 C-43.61852014 16.03780197 -48.30924663 16.02053883 -53 16 C-50.19350765 14.1290051 -47.50039527 12.76982048 -44.4375 11.375 C-42.98150391 10.70597656 -42.98150391 10.70597656 -41.49609375 10.0234375 C-39 9 -39 9 -37 9 C-37.33 10.65 -37.66 12.3 -38 14 C-34.83351345 14.08820927 -31.66734908 14.1407905 -28.5 14.1875 C-27.613125 14.21263672 -26.72625 14.23777344 -25.8125 14.26367188 C-17.99499514 14.34989436 -12.27812951 12.88298962 -6 8 C-5.01 8 -4.02 8 -3 8 C-2.814375 6.576875 -2.814375 6.576875 -2.625 5.125 C-2 2 -2 2 0 0 Z " fill="#092F4D" transform="translate(142,82)"/>
<path d="M0 0 C0.66 0.33 1.32 0.66 2 1 C1.01 2.485 1.01 2.485 0 4 C11.55 4 23.1 4 35 4 C35 3.01 35 2.02 35 1 C36.27875 1.103125 37.5575 1.20625 38.875 1.3125 C39.59429687 1.37050781 40.31359375 1.42851563 41.0546875 1.48828125 C43 2 43 2 45 5 C44.625 7.1875 44.625 7.1875 44 9 C43.34 7.35 42.68 5.7 42 4 C39.58354218 3.83312552 39.58354218 3.83312552 37 4 C36.34 4.66 35.68 5.32 35 6 C32.86129761 6.2784729 32.86129761 6.2784729 30.18310547 6.31884766 C29.18221893 6.33871735 28.1813324 6.35858704 27.15011597 6.37905884 C25.52506638 6.39638565 25.52506638 6.39638565 23.8671875 6.4140625 C22.20672897 6.44311172 22.20672897 6.44311172 20.51272583 6.4727478 C16.96689631 6.53266754 13.42103455 6.57897873 9.875 6.625 C7.47524603 6.66316835 5.07550592 6.70221939 2.67578125 6.7421875 C-3.21602302 6.83837916 -9.10791036 6.92339015 -15 7 C-14.67 6.34 -14.34 5.68 -14 5 C-12.109375 4.7265625 -12.109375 4.7265625 -9.75 4.625 C-5.4000963 4.25730479 -3.1501028 3.1501028 0 0 Z " fill="#287BC7" transform="translate(57,57)"/>
<path d="M0 0 C2.4375 0.75 2.4375 0.75 5 2 C6.27226681 5.2618409 6.03755394 8.40438083 5.87890625 11.859375 C5.83056641 12.97441406 5.78222656 14.08945313 5.73242188 15.23828125 C5.67634766 16.39714844 5.62027344 17.55601563 5.5625 18.75 C5.51029297 19.92433594 5.45808594 21.09867188 5.40429688 22.30859375 C5.27473776 25.20600664 5.13977553 28.10306493 5 31 C3.68 31 2.36 31 1 31 C0.34956362 20.6510926 -0.16494885 10.3734499 0 0 Z " fill="#0284F0" transform="translate(426,50)"/>
<path d="M0 0 C1.2375 0.00128906 2.475 0.00257812 3.75 0.00390625 C7 0.4375 7 0.4375 8.89453125 1.734375 C10.65060772 4.43984971 10.70229243 7.28179971 11 10.4375 C8.03 10.4375 5.06 10.4375 2 10.4375 C1.67 9.1175 1.34 7.7975 1 6.4375 C2.65614657 6.05531233 4.32457024 5.72354898 6 5.4375 C6.33 5.7675 6.66 6.0975 7 6.4375 C7.33 5.1175 7.66 3.7975 8 2.4375 C0.08 2.9325 0.08 2.9325 -8 3.4375 C-7.67 8.7175 -7.34 13.9975 -7 19.4375 C-3.7 20.0975 -0.4 20.7575 3 21.4375 C3 21.7675 3 22.0975 3 22.4375 C1.58506449 22.54634119 0.16767057 22.62347617 -1.25 22.6875 C-2.03890625 22.73390625 -2.8278125 22.7803125 -3.640625 22.828125 C-6 22.4375 -6 22.4375 -8.26953125 20.859375 C-10.59957802 17.59836147 -10.5006771 15.41344522 -10.4375 11.4375 C-10.43621094 10.220625 -10.43492187 9.00375 -10.43359375 7.75 C-9.51192186 0.70875893 -6.79005482 -0.10609461 0 0 Z " fill="#2A7CC6" transform="translate(331,46.5625)"/>
<path d="M0 0 C2.64 0 5.28 0 8 0 C8 1.65 8 3.3 8 5 C9.65 5 11.3 5 13 5 C12.01 6.485 12.01 6.485 11 8 C10.34 8 9.68 8 9 8 C9 8.99 9 9.98 9 11 C13.55737263 10.56179109 16.57653445 10.14958831 20 7 C18.125 10.875 18.125 10.875 17 12 C14.90083974 12.17858965 12.79377312 12.26798477 10.6875 12.3125 C8.96080078 12.36857422 8.96080078 12.36857422 7.19921875 12.42578125 C4 12 4 12 1.59765625 10.24609375 C-0.92445847 6.70033345 -0.28361543 4.25423152 0 0 Z " fill="#2180D0" transform="translate(321,72)"/>
<path d="M0 0 C0.66902344 -0.020625 1.33804687 -0.04125 2.02734375 -0.0625 C6.43236608 -0.09711707 9.37709676 0.33443957 12.75 3.25 C13.52734375 5.58984375 13.52734375 5.58984375 13.6875 8.1875 C13.75839844 9.04214844 13.82929688 9.89679687 13.90234375 10.77734375 C13.73875705 13.43248177 13.10101759 14.98428567 11.75 17.25 C11.42 17.25 11.09 17.25 10.75 17.25 C10.76160156 16.66992188 10.77320313 16.08984375 10.78515625 15.4921875 C10.79417969 14.71101563 10.80320312 13.92984375 10.8125 13.125 C10.82410156 12.35929687 10.83570313 11.59359375 10.84765625 10.8046875 C10.78132383 7.65724092 10.78132383 7.65724092 9.75 2.25 C4.14 2.25 -1.47 2.25 -7.25 2.25 C-6.92 13.47 -6.59 24.69 -6.25 36.25 C-6.91 36.25 -7.57 36.25 -8.25 36.25 C-8.27465098 31.28377651 -8.29283649 26.31758834 -8.30493164 21.35131836 C-8.3099719 19.66055684 -8.31680405 17.96979971 -8.32543945 16.27905273 C-8.33751857 13.85399293 -8.34323123 11.42899056 -8.34765625 9.00390625 C-8.35281754 8.24348526 -8.35797882 7.48306427 -8.36329651 6.69960022 C-8.36349238 4.8826743 -8.31197277 3.06586873 -8.25 1.25 C-6.286987 -0.713013 -2.67160806 0.02012511 0 0 Z " fill="#2381D2" transform="translate(420.25,46.75)"/>
<path d="M0 0 C1.98 0 3.96 0 6 0 C6.33 5.61 6.66 11.22 7 17 C5.02 17.33 3.04 17.66 1 18 C-0.32594359 12.03325384 -0.0884587 6.07416385 0 0 Z " fill="#0681EF" transform="translate(369,48)"/>
<path d="M0 0 C0 0.66 0 1.32 0 2 C-0.66 2 -1.32 2 -2 2 C-1.67 3.32 -1.34 4.64 -1 6 C-1.99 6.33 -2.98 6.66 -4 7 C-4.33 5.68 -4.66 4.36 -5 3 C-5.33 4.98 -5.66 6.96 -6 9 C-6.763125 9.020625 -7.52625 9.04125 -8.3125 9.0625 C-11.41389118 9.79660949 -11.41389118 9.79660949 -12.8125 13.5625 C-13.204375 14.696875 -13.59625 15.83125 -14 17 C-15.32 16.67 -16.64 16.34 -18 16 C-17.34 16 -16.68 16 -16 16 C-15.7834375 14.329375 -15.7834375 14.329375 -15.5625 12.625 C-15 9 -15 9 -14 7 C-14.33 6.01 -14.66 5.02 -15 4 C-14.236875 3.71125 -13.47375 3.4225 -12.6875 3.125 C-4.79038462 -0.18076923 -4.79038462 -0.18076923 0 0 Z " fill="#0184F3" transform="translate(100,69)"/>
<path d="M0 0 C5.75 -0.125 5.75 -0.125 8 1 C8.02703381 2.93742341 8.04641125 4.87495479 8.0625 6.8125 C8.07410156 7.89144531 8.08570313 8.97039063 8.09765625 10.08203125 C8 13 8 13 7 16 C5.35 16 3.7 16 2 16 C2 15.34 2 14.68 2 14 C1.01 14.33 0.02 14.66 -1 15 C-1.66 14.34 -2.32 13.68 -3 13 C-2.34 12.34 -1.68 11.68 -1 11 C-0.53709779 8.33757179 -0.53709779 8.33757179 -0.375 5.375 C-0.30023438 4.37210938 -0.22546875 3.36921875 -0.1484375 2.3359375 C-0.09945313 1.56507812 -0.05046875 0.79421875 0 0 Z M2 1 C2 4.3 2 7.6 2 11 C3.32 11 4.64 11 6 11 C6 7.7 6 4.4 6 1 C4.68 1 3.36 1 2 1 Z " fill="#1781DD" transform="translate(419,52)"/>
<path d="M0 0 C1.32 0 2.64 0 4 0 C3.6875 1.9375 3.6875 1.9375 3 4 C2.01 4.33 1.02 4.66 0 5 C0.04125 6.093125 0.0825 7.18625 0.125 8.3125 C0 12 0 12 -2 15 C-2.66 15 -3.32 15 -4 15 C-4 16.32 -4 17.64 -4 19 C-5.65 18.67 -7.3 18.34 -9 18 C-8.67 17.01 -8.34 16.02 -8 15 C-8.66 14.67 -9.32 14.34 -10 14 C-9.38125 13.938125 -8.7625 13.87625 -8.125 13.8125 C-5.75620163 13.18108908 -5.75620163 13.18108908 -4.8125 10.625 C-4.544375 9.75875 -4.27625 8.8925 -4 8 C-3.67 7.01 -3.34 6.02 -3 5 C-2.34 5 -1.68 5 -1 5 C-0.67 3.35 -0.34 1.7 0 0 Z " fill="#0384EF" transform="translate(127,52)"/>
<path d="M0 0 C2.64 0 5.28 0 8 0 C8 11.88 8 23.76 8 36 C7.67 36 7.34 36 7 36 C7 24.78 7 13.56 7 2 C5.02 2 3.04 2 1 2 C1.01160156 2.92683594 1.02320313 3.85367188 1.03515625 4.80859375 C1.04417969 6.00613281 1.05320312 7.20367187 1.0625 8.4375 C1.07410156 9.63246094 1.08570313 10.82742187 1.09765625 12.05859375 C1 15 1 15 0 16 C-1.99958364 16.04080783 -4.00045254 16.04254356 -6 16 C-6 15.67 -6 15.34 -6 15 C-4.35 15 -2.7 15 -1 15 C-1.01160156 14.00097656 -1.02320313 13.00195312 -1.03515625 11.97265625 C-1.04417969 10.68230469 -1.05320312 9.39195313 -1.0625 8.0625 C-1.07410156 6.77472656 -1.08570313 5.48695312 -1.09765625 4.16015625 C-1 1 -1 1 0 0 Z " fill="#2880D0" transform="translate(382,47)"/>
<path d="M0 0 C2.39775501 1.8227224 2.96068698 2.72092703 3.38818359 5.75561523 C3.39156738 6.84559814 3.39495117 7.93558105 3.3984375 9.05859375 C3.40230469 10.24904297 3.40617187 11.43949219 3.41015625 12.66601562 C3.39855469 13.91060547 3.38695312 15.15519531 3.375 16.4375 C3.38660156 17.67822266 3.39820313 18.91894531 3.41015625 20.19726562 C3.40628906 21.38900391 3.40242188 22.58074219 3.3984375 23.80859375 C3.39505371 24.89970459 3.39166992 25.99081543 3.38818359 27.11499023 C2.95259054 30.3523507 2.32920018 31.73314744 0 34 C-3.6875 34.75 -3.6875 34.75 -7 35 C-6.67 34.01 -6.34 33.02 -6 32 C-4.68 32 -3.36 32 -2 32 C-1.855625 31.360625 -1.71125 30.72125 -1.5625 30.0625 C-1 28 -1 28 0 27 C0.38443381 23.43062119 0.47067089 19.83588219 0.625 16.25 C0.6765625 15.24710938 0.728125 14.24421875 0.78125 13.2109375 C0.82507813 12.23898438 0.86890625 11.26703125 0.9140625 10.265625 C0.9548291 9.37649414 0.9955957 8.48736328 1.03759766 7.57128906 C0.99894525 4.92786626 0.59828881 2.57004062 0 0 Z " fill="#1A7CD4" transform="translate(305,49)"/>
<path d="M0 0 C0.66 0.33 1.32 0.66 2 1 C0.35 2.98 -1.3 4.96 -3 7 C-2.505 6.67 -2.01 6.34 -1.5 6 C2.93573202 4.22570719 7.47258828 4.49086276 12 6 C12 8.64 12 11.28 12 14 C11.01 14 10.02 14 9 14 C9.33 13.67 9.66 13.34 10 13 C10.04063832 11.33382885 10.042721 9.66611905 10 8 C7.03 7.505 7.03 7.505 4 7 C4 7.66 4 8.32 4 9 C-3.26 9 -10.52 9 -18 9 C-18 8.67 -18 8.34 -18 8 C-17.3709375 8.00902344 -16.741875 8.01804687 -16.09375 8.02734375 C-8.65445499 7.76965733 -5.02258268 5.37332169 0 0 Z " fill="#277CCF" transform="translate(81,37)"/>
<path d="M0 0 C1.32 0 2.64 0 4 0 C4 1.98 4 3.96 4 6 C4.66 6 5.32 6 6 6 C5.67 8.97 5.34 11.94 5 15 C3.68 15 2.36 15 1 15 C0 14 0 14 -0.09765625 10.83984375 C-0.08025391 8.90818359 -0.08025391 8.90818359 -0.0625 6.9375 C-0.05347656 5.64714844 -0.04445313 4.35679688 -0.03515625 3.02734375 C-0.02355469 2.02832031 -0.01195312 1.02929688 0 0 Z " fill="#0585F3" transform="translate(369,68)"/>
<path d="M0 0 C3.63 0 7.26 0 11 0 C11 0.66 11 1.32 11 2 C8.69 2 6.38 2 4 2 C4 6.29 4 10.58 4 15 C2.68 15 1.36 15 0 15 C0 10.05 0 5.1 0 0 Z " fill="#0184F1" transform="translate(347,49)"/>
<path d="M0 0 C0.33 0.66 0.66 1.32 1 2 C-0.10152406 3.43952597 -1.2063304 4.87654071 -2.3125 6.3125 C-2.92738281 7.11300781 -3.54226562 7.91351563 -4.17578125 8.73828125 C-5.69916307 10.62701374 -7.24434407 12.33077636 -9 14 C-9.66 13.67 -10.32 13.34 -11 13 C-11 12.34 -11 11.68 -11 11 C-11.66 11 -12.32 11 -13 11 C-13 10.01 -13 9.02 -13 8 C-10.625 5.9375 -10.625 5.9375 -8 4 C-7.34 3.34 -6.68 2.68 -6 2 C-3.375 2.375 -3.375 2.375 -1 3 C-0.67 2.01 -0.34 1.02 0 0 Z M-15 11 C-13 12 -13 12 -13 12 Z " fill="#0D84ED" transform="translate(116,62)"/>
<path d="M0 0 C1.875 0.125 1.875 0.125 4 1 C5.25 4.0625 5.25 4.0625 6 7 C5.01 7.33 4.02 7.66 3 8 C3 9.32 3 10.64 3 12 C1.35 12.66 -0.3 13.32 -2 14 C-1.67 12.02 -1.34 10.04 -1 8 C-1.66 7.67 -2.32 7.34 -3 7 C-2.38722388 4.03824877 -1.74627478 2.61941217 0 0 Z " fill="#0283F1" transform="translate(130,32)"/>
<path d="M0 0 C0.33 0 0.66 0 1 0 C1 8.25 1 16.5 1 25 C2.65 25 4.3 25 6 25 C3 27 3 27 -1 27 C-1.33 27.66 -1.66 28.32 -2 29 C-0.22925083 29.02705729 1.54161711 29.04642195 3.3125 29.0625 C4.29863281 29.07410156 5.28476563 29.08570312 6.30078125 29.09765625 C9.81405575 28.97054791 11.49399686 28.50600314 14 26 C13.625 27.9375 13.625 27.9375 13 30 C10.14804778 31.42597611 7.67538825 31.1320252 4.5 31.125 C2.75203125 31.12886719 2.75203125 31.12886719 0.96875 31.1328125 C-2 31 -2 31 -4 30 C-3.67 28.35 -3.34 26.7 -3 25 C-2.01 25 -1.02 25 0 25 C0 16.75 0 8.5 0 0 Z " fill="#177FDB" transform="translate(243,53)"/>
<path d="M0 0 C0.99 0.33 1.98 0.66 3 1 C3 3.64 3 6.28 3 9 C2.13375 9 1.2675 9 0.375 9 C-4.01087043 10.29951716 -5.15751933 12.37408581 -7.60546875 16.08984375 C-9 18 -9 18 -12 20 C-10.59726615 17.04089954 -8.9757693 14.38693812 -7.125 11.6875 C-4.55361433 7.88084082 -2.22312432 4.01872472 0 0 Z " fill="#0A2D4D" transform="translate(132,59)"/>
<path d="M0 0 C1.99954746 -0.04254356 4.00041636 -0.04080783 6 0 C7 1 7 1 7.0625 4.5625 C7.041875 5.696875 7.02125 6.83125 7 8 C4.66705225 8.04241723 2.33297433 8.04092937 0 8 C-0.33 7.67 -0.66 7.34 -1 7 C-0.71269945 4.66055264 -0.38063221 2.3260857 0 0 Z " fill="#0E3653" transform="translate(148,50)"/>
<path d="M0 0 C1 3 1 3 -0.5 6.375 C-3.31633177 10.9274267 -6.92923684 14.2739877 -12.23046875 15.52734375 C-14.14418138 15.7746022 -16.07304722 15.89858143 -18 16 C-18 15.34 -18 14.68 -18 14 C-16.7625 13.566875 -15.525 13.13375 -14.25 12.6875 C-11.04804113 11.50158931 -8.70033702 10.10026213 -6 8 C-5.01 8 -4.02 8 -3 8 C-2.87625 7.05125 -2.7525 6.1025 -2.625 5.125 C-2 2 -2 2 0 0 Z " fill="#0A2D4B" transform="translate(142,82)"/>
<path d="M0 0 C4.62 0 9.24 0 14 0 C16 5 16 5 16 9 C13.03 9 10.06 9 7 9 C6.67 7.68 6.34 6.36 6 5 C7.65614657 4.61781233 9.32457024 4.28604898 11 4 C11.33 4.33 11.66 4.66 12 5 C12.33 3.68 12.66 2.36 13 1 C8.71 1 4.42 1 0 1 C0 0.67 0 0.34 0 0 Z " fill="#0E7FE0" transform="translate(326,48)"/>
<path d="M0 0 C1.95766281 -0.08082094 3.91626728 -0.13910778 5.875 -0.1875 C7.51082031 -0.23970703 7.51082031 -0.23970703 9.1796875 -0.29296875 C10.11039063 -0.19628906 11.04109375 -0.09960938 12 0 C12.66 0.99 13.32 1.98 14 3 C9.71 2.67 5.42 2.34 1 2 C1 2.99 1 3.98 1 5 C-0.57914015 5.53341184 -2.16354387 6.05125763 -3.75 6.5625 C-4.63171875 6.85253906 -5.5134375 7.14257812 -6.421875 7.44140625 C-9.07834316 8.01697435 -10.47031106 7.89248371 -13 7 C-5.71428571 3.57142857 -5.71428571 3.57142857 -1 4 C-0.67 2.68 -0.34 1.36 0 0 Z " fill="#2681D1" transform="translate(72,49)"/>
<path d="M0 0 C4.95 0 9.9 0 15 0 C15 0.33 15 0.66 15 1 C10.38 1 5.76 1 1 1 C1.33 10.9 1.66 20.8 2 31 C2.66 31.33 3.32 31.66 4 32 C4 32.66 4 33.32 4 34 C2.68 34 1.36 34 0 34 C0 22.78 0 11.56 0 0 Z " fill="#107FE0" transform="translate(394,48)"/>
<path d="M0 0 C2.33294775 -0.04241723 4.66702567 -0.04092937 7 0 C8 1 8 1 8.125 3.5 C8 6 8 6 7 7 C4.66702567 7.04092937 2.33294775 7.04241723 0 7 C0 9.31 0 11.62 0 14 C2.64 14 5.28 14 8 14 C8 16.31 8 18.62 8 21 C7.67 21 7.34 21 7 21 C7 19.02 7 17.04 7 15 C4.36 15 1.72 15 -1 15 C-1 12.03 -1 9.06 -1 6 C0.4540625 5.5978125 0.4540625 5.5978125 1.9375 5.1875 C3.4534375 4.5996875 3.4534375 4.5996875 5 4 C5.33 3.01 5.66 2.02 6 1 C4.02 1 2.04 1 0 1 C0 0.67 0 0.34 0 0 Z " fill="#2B87D8" transform="translate(402,62)"/>
<path d="M0 0 C-1.67872725 3.96790076 -4.08277074 6.86931494 -7 10 C-7.99 10 -8.98 10 -10 10 C-10 9.01 -10 8.02 -10 7 C-10.66 6.67 -11.32 6.34 -12 6 C-11.01 5.67 -10.02 5.34 -9 5 C-8.34 5.33 -7.68 5.66 -7 6 C-7 4.02 -7 2.04 -7 0 C-4.3333581 -1.33332095 -2.83319697 -0.67102033 0 0 Z " fill="#0C7AD8" transform="translate(123,71)"/>
<path d="M0 0 C0.66 0.33 1.32 0.66 2 1 C2.1953125 7.0546875 2.1953125 7.0546875 2 9 C0 11 0 11 -3.625 11.125 C-4.73875 11.08375 -5.8525 11.0425 -7 11 C-7 10.01 -7 9.02 -7 8 C-6.030625 7.608125 -5.06125 7.21625 -4.0625 6.8125 C-0.77823609 5.32405113 -0.77823609 5.32405113 -0.125 2.3125 C-0.08375 1.549375 -0.0425 0.78625 0 0 Z " fill="#0383F2" transform="translate(337,72)"/>
<path d="M0 0 C0.33 0 0.66 0 1 0 C1 3.3 1 6.6 1 10 C0.34 10 -0.32 10 -1 10 C-1.03738281 10.59167969 -1.07476562 11.18335938 -1.11328125 11.79296875 C-1.50560953 16.5086008 -1.83759975 20.25197007 -5 24 C-7.10546875 24.625 -7.10546875 24.625 -9 25 C-8.51789063 23.94941406 -8.03578125 22.89882813 -7.5390625 21.81640625 C-4.28417272 14.61949281 -1.26246664 7.85534799 0 0 Z " fill="#2983D8" transform="translate(126,41)"/>
<path d="M0 0 C0.66 0 1.32 0 2 0 C0.76925804 7.50752597 -1.80991325 13.62378103 -6 20 C-6.66 20.33 -7.32 20.66 -8 21 C-8 19.68 -8 18.36 -8 17 C-7.34 17 -6.68 17 -6 17 C-5.89042969 16.30132812 -5.78085938 15.60265625 -5.66796875 14.8828125 C-5.50941406 13.97273438 -5.35085937 13.06265625 -5.1875 12.125 C-5.03667969 11.22007813 -4.88585937 10.31515625 -4.73046875 9.3828125 C-4 7 -4 7 -1 5 C-0.27034634 2.43717258 -0.27034634 2.43717258 0 0 Z " fill="#1A78CD" transform="translate(131,50)"/>
<path d="M0 0 C1.65 0 3.3 0 5 0 C5 2.64 5 5.28 5 8 C3.68 8.33 2.36 8.66 1 9 C-0.4783226 6.04335481 -0.06032783 3.25770263 0 0 Z " fill="#0483F0" transform="translate(323,73)"/>
<path d="M0 0 C2.64 0 5.28 0 8 0 C8.96070434 2.88211302 9.10581883 4.69850044 9.0625 7.6875 C9.05347656 8.49574219 9.04445312 9.30398437 9.03515625 10.13671875 C9.02355469 10.75160156 9.01195312 11.36648437 9 12 C7.05841983 8.48375245 6.81688932 6.0284349 7 2 C3.72226496 2.75150023 3.72226496 2.75150023 2 6 C1.34 4.02 0.68 2.04 0 0 Z " fill="#0B2D4C" transform="translate(135,70)"/>
<path d="M0 0 C0.99 0.33 1.98 0.66 3 1 C2.6875 2.9375 2.6875 2.9375 2 5 C1.01 5.33 0.02 5.66 -1 6 C-1.33 6.66 -1.66 7.32 -2 8 C-3.66279327 9.0064275 -5.32983484 10.00585407 -7 11 C-8.75149165 12.58245275 -8.75149165 12.58245275 -10 14 C-10.66 13.67 -11.32 13.34 -12 13 C-11.0479279 11.99403703 -10.08812654 10.99538437 -9.125 10 C-8.32449219 9.1646875 -8.32449219 9.1646875 -7.5078125 8.3125 C-6 7 -6 7 -4 7 C-3.71125 6.401875 -3.4225 5.80375 -3.125 5.1875 C-2 3 -2 3 0 0 Z " fill="#1D88E3" transform="translate(116,66)"/>
<path d="M0 0 C0.66 0 1.32 0 2 0 C2 2.31 2 4.62 2 7 C3.258125 6.938125 4.51625 6.87625 5.8125 6.8125 C8.62065146 6.67439419 9.59025178 6.64839787 11.76171875 8.51171875 C12.17035156 9.00285156 12.57898438 9.49398437 13 10 C11.02043559 9.85966889 9.04134859 9.7125877 7.0625 9.5625 C5.96035156 9.48128906 4.85820312 9.40007813 3.72265625 9.31640625 C1 9 1 9 0 8 C-0.14115161 5.32941149 -0.04247107 2.67567762 0 0 Z " fill="#237FD3" transform="translate(327,54)"/>
<path d="M0 0 C5.94 0 11.88 0 18 0 C18 0.33 18 0.66 18 1 C10.08 1.495 10.08 1.495 2 2 C2.33 2.99 2.66 3.98 3 5 C2.34 5 1.68 5 1 5 C1.20625 5.78375 1.4125 6.5675 1.625 7.375 C1.74875 8.24125 1.8725 9.1075 2 10 C1.34 10.66 0.68 11.32 0 12 C0 8.04 0 4.08 0 0 Z " fill="#0B81E2" transform="translate(287,48)"/>
<path d="M0 0 C2.97 0 5.94 0 9 0 C8.21625 0.763125 7.4325 1.52625 6.625 2.3125 C3.92742283 4.90891805 3.92742283 4.90891805 2 8 C-0.1519437 4.77208445 -0.20086443 3.71599191 0 0 Z " fill="#107FE6" transform="translate(51,83)"/>
<path d="M0 0 C1.32 0 2.64 0 4 0 C4 2.31 4 4.62 4 7 C1.03 6.505 1.03 6.505 -2 6 C-1.34 4.02 -0.68 2.04 0 0 Z " fill="#0676EB" transform="translate(230,77)"/>
<path d="M0 0 C0.33 0.66 0.66 1.32 1 2 C-0.98 4.64 -2.96 7.28 -5 10 C-7.1519437 6.77208445 -7.20086443 5.71599191 -7 2 C-4.03 2.495 -4.03 2.495 -1 3 C-0.67 2.01 -0.34 1.02 0 0 Z " fill="#1580E0" transform="translate(116,62)"/>
<path d="M0 0 C1.32 1.32 2.64 2.64 4 4 C3.67 4.66 3.34 5.32 3 6 C1.68 5.67 0.36 5.34 -1 5 C-2.32 7.64 -3.64 10.28 -5 13 C-5.99 12.67 -6.98 12.34 -8 12 C-5.36 8.04 -2.72 4.08 0 0 Z " fill="#277AC7" transform="translate(131,28)"/>
<path d="M0 0 C5.75 4.625 5.75 4.625 8 8 C7.625 11.6875 7.625 11.6875 7 15 C6.67 15 6.34 15 6 15 C5.67 13.02 5.34 11.04 5 9 C4.34 9 3.68 9 3 9 C2.87625 8.2575 2.7525 7.515 2.625 6.75 C2.04513299 4.19858515 1.26291261 2.2732427 0 0 Z " fill="#1B7ED2" transform="translate(115,39)"/>
<path d="M0 0 C1.89213369 2.38573379 3.02391783 4.07175348 4 7 C3.01 7.495 3.01 7.495 2 8 C1.34 7.67 0.68 7.34 0 7 C-0.33 9.97 -0.66 12.94 -1 16 C-1.33 16 -1.66 16 -2 16 C-2.05395478 14.37536158 -2.09277195 12.75021459 -2.125 11.125 C-2.14820313 10.22007813 -2.17140625 9.31515625 -2.1953125 8.3828125 C-2 6 -2 6 0 4 C0 2.68 0 1.36 0 0 Z " fill="#1E79C9" transform="translate(135,34)"/>
<path d="M0 0 C2.27057377 -0.05398987 4.54151288 -0.09278742 6.8125 -0.125 C8.07707031 -0.14820313 9.34164063 -0.17140625 10.64453125 -0.1953125 C14 0 14 0 17 2 C17.1875 4.625 17.1875 4.625 17 7 C15.5 5.625 15.5 5.625 14 4 C14 3.34 14 2.68 14 2 C7.07 1.505 7.07 1.505 0 1 C0 0.67 0 0.34 0 0 Z " fill="#2278CA" transform="translate(265,47)"/>
<path d="M0 0 C0.33 0 0.66 0 1 0 C1.33 3.63 1.66 7.26 2 11 C-0.31 11 -2.62 11 -5 11 C-5.33 10.01 -5.66 9.02 -6 8 C-3.03 8.495 -3.03 8.495 0 9 C0 6.03 0 3.06 0 0 Z " fill="#1A82E2" transform="translate(208,54)"/>
<path d="M0 0 C2 3 2 3 2 7 C-0.97 7 -3.94 7 -7 7 C-7.33 5.68 -7.66 4.36 -8 3 C-7.34 3 -6.68 3 -6 3 C-6 3.66 -6 4.32 -6 5 C-4.02 5 -2.04 5 0 5 C0 3.35 0 1.7 0 0 Z " fill="#2D7FCA" transform="translate(340,50)"/>
<path d="M0 0 C-1.76245222 1.1999038 -3.53526981 2.38459517 -5.3125 3.5625 C-6.79169922 4.55443359 -6.79169922 4.55443359 -8.30078125 5.56640625 C-9.19152344 6.03949219 -10.08226563 6.51257813 -11 7 C-11.99 6.67 -12.98 6.34 -14 6 C-13.34 6 -12.68 6 -12 6 C-12 5.34 -12 4.68 -12 4 C-10.68 4 -9.36 4 -8 4 C-8 3.34 -8 2.68 -8 2 C-7.34 2 -6.68 2 -6 2 C-6 1.34 -6 0.68 -6 0 C-2.25 -1.125 -2.25 -1.125 0 0 Z " fill="#1A70C5" transform="translate(111,85)"/>
<path d="M0 0 C1.32 0.66 2.64 1.32 4 2 C4 3.32 4 4.64 4 6 C5.32 6.33 6.64 6.66 8 7 C7.01 7.33 6.02 7.66 5 8 C3.17578125 7.00390625 3.17578125 7.00390625 1.3125 5.5625 C0.68988281 5.08941406 0.06726562 4.61632812 -0.57421875 4.12890625 C-1.04472656 3.75636719 -1.51523437 3.38382812 -2 3 C-1.34 2.01 -0.68 1.02 0 0 Z " fill="#177EDA" transform="translate(56,89)"/>
<path d="M0 0 C5.70709064 0.46588495 9.15939723 1.93757784 14 5 C13.01 5.495 13.01 5.495 12 6 C10.26379633 5.27931168 8.52932088 4.55252881 6.8203125 3.76953125 C4.58953565 2.82647752 2.38919922 2.36199988 0 2 C0 1.34 0 0.68 0 0 Z " fill="#207CD0" transform="translate(101,33)"/>
<path d="M0 0 C2 3.875 2 3.875 2 5 C-0.64 5 -3.28 5 -6 5 C-6 4.01 -6 3.02 -6 2 C-4.02 1.34 -2.04 0.68 0 0 Z " fill="#0383F4" transform="translate(443,76)"/>
<path d="M0 0 C1 3 1 3 -0.6875 6.5625 C-2.39805336 9.38759509 -3.7558811 10.95724749 -7 12 C-6.566875 11.484375 -6.13375 10.96875 -5.6875 10.4375 C-3.60062999 7.42313221 -2.40524483 4.38536255 -1 1 C-0.67 0.67 -0.34 0.34 0 0 Z " fill="#092439" transform="translate(142,82)"/>
<path d="M0 0 C-0.66 1.65 -1.32 3.3 -2 5 C-3.32 5 -4.64 5 -6 5 C-6 4.34 -6 3.68 -6 3 C-7.65 2.67 -9.3 2.34 -11 2 C-11 1.67 -11 1.34 -11 1 C-7.26562152 0.12132271 -3.83225427 -0.08912219 0 0 Z " fill="#0980E7" transform="translate(88,66)"/>
<path d="M0 0 C3.3 0 6.6 0 10 0 C10.33 0.99 10.66 1.98 11 3 C7.75 3.75 7.75 3.75 4 4 C1.5625 2.0625 1.5625 2.0625 0 0 Z " fill="#2583D1" transform="translate(83,65)"/>
<path d="M0 0 C2 2 2 2 2.125 4.625 C2.08375 5.40875 2.0425 6.1925 2 7 C-0.97 6.505 -0.97 6.505 -4 6 C-4 5.01 -4 4.02 -4 3 C-3.01 3 -2.02 3 -1 3 C-0.67 2.01 -0.34 1.02 0 0 Z " fill="#0384F3" transform="translate(115,71)"/>
<path d="M0 0 C0.99 0 1.98 0 3 0 C1.8141763 3.37503669 0.72426311 5.64722731 -2 8 C-2.66 7.67 -3.32 7.34 -4 7 C-2.68 4.69 -1.36 2.38 0 0 Z " fill="#1C80DF" transform="translate(121,58)"/>
<path d="M0 0 C1.32 0 2.64 0 4 0 C4 1.98 4 3.96 4 6 C2.35 5.67 0.7 5.34 -1 5 C-0.67 3.35 -0.34 1.7 0 0 Z " fill="#093363" transform="translate(150,50)"/>
<path d="M0 0 C0.66 0 1.32 0 2 0 C4 3 4 3 3.625 6.1875 C3.41875 7.115625 3.2125 8.04375 3 9 C1.35 9 -0.3 9 -2 9 C-1.484375 8.62875 -0.96875 8.2575 -0.4375 7.875 C1.36319983 5.96826848 1.36319983 5.96826848 0.6875 2.8125 C0.460625 1.884375 0.23375 0.95625 0 0 Z " fill="#247FDA" transform="translate(81,76)"/>
<path d="M0 0 C0.99 0.66 1.98 1.32 3 2 C3 3.32 3 4.64 3 6 C1.35 6 -0.3 6 -2 6 C-2 4.68 -2 3.36 -2 2 C-1.34 2 -0.68 2 0 2 C0 1.34 0 0.68 0 0 Z " fill="#0171F5" transform="translate(265,78)"/>
<path d="M0 0 C0.99 0.33 1.98 0.66 3 1 C3 3.31 3 5.62 3 8 C1.66666667 6.66666667 0.33333333 5.33333333 -1 4 C-0.5625 1.9375 -0.5625 1.9375 0 0 Z " fill="#0F3150" transform="translate(132,59)"/>
<path d="M0 0 C1.98 0.495 1.98 0.495 4 1 C3.34 2.32 2.68 3.64 2 5 C1.01 4.67 0.02 4.34 -1 4 C-0.67 2.68 -0.34 1.36 0 0 Z " fill="#3E87CA" transform="translate(77,78)"/>
<path d="M0 0 C0.33 0.99 0.66 1.98 1 3 C-1.375 3.625 -1.375 3.625 -4 4 C-4.66 3.34 -5.32 2.68 -6 2 C-4.02 1.34 -2.04 0.68 0 0 Z " fill="#0678E9" transform="translate(100,32)"/>
<path d="M0 0 C1.98 0.495 1.98 0.495 4 1 C3.67 1.99 3.34 2.98 3 4 C1.68 3.67 0.36 3.34 -1 3 C-0.67 2.01 -0.34 1.02 0 0 Z " fill="#487FCB" transform="translate(95,62)"/>
<path d="M0 0 C1.32 0 2.64 0 4 0 C4 1.32 4 2.64 4 4 C2.68 4 1.36 4 0 4 C0 2.68 0 1.36 0 0 Z " fill="#0A1C30" transform="translate(143,47)"/>
<path d="M0 0 C0.99 0.33 1.98 0.66 3 1 C2.67 2.32 2.34 3.64 2 5 C1.01 4.67 0.02 4.34 -1 4 C-0.67 2.68 -0.34 1.36 0 0 Z " fill="#5180D0" transform="translate(87,45)"/>
<path d="M0 0 C0.99 0 1.98 0 3 0 C3 0.99 3 1.98 3 3 C2.01 2.67 1.02 2.34 0 2 C0 1.34 0 0.68 0 0 Z " fill="#505991" transform="translate(149,46)"/>
</svg>
